<svg xmlns="http://www.w3.org/2000/svg" width="400" height="134" viewBox="0 0 400 134">
   <path d="M56.667 36.167 C 56.667 50.904,56.555 58.000,56.324 58.000 C 56.135 58.000,55.123 57.568,54.074 57.039 C 51.730 55.859,47.314 54.442,45.033 54.140 L 43.333 53.914 43.333 62.746 L 43.333 71.577 45.309 72.298 C 63.147 78.802,58.055 106.000,39.000 106.000 C 19.739 106.000,14.828 78.202,33.021 72.160 L 34.667 71.613 34.667 62.764 L 34.667 53.914 32.967 54.140 C 14.037 56.651,0.013 78.015,4.957 96.811 C 13.010 127.428,53.071 133.287,69.213 106.209 C 74.008 98.166,74.000 98.254,74.000 52.643 L 74.000 14.333 65.333 14.333 L 56.667 14.333 56.667 36.167 M279.667 36.202 C 279.667 53.572,279.581 58.034,279.250 57.890 C 279.021 57.791,277.620 57.175,276.136 56.521 C 273.397 55.315,268.866 54.000,267.447 54.000 L 266.667 54.000 266.667 62.793 L 266.667 71.585 268.608 72.311 C 280.240 76.661,283.420 91.989,274.531 100.859 C 260.733 114.626,238.137 98.665,246.498 81.058 C 248.455 76.936,254.710 71.667,257.645 71.667 C 257.887 71.667,258.000 68.862,258.000 62.833 L 258.000 54.000 257.139 54.000 C 254.077 54.000,247.016 56.708,242.851 59.479 C 224.833 71.468,221.989 96.882,236.898 112.686 C 253.779 130.581,283.567 125.654,293.993 103.242 C 297.351 96.024,297.333 96.289,297.333 52.092 L 297.333 14.333 288.500 14.333 L 279.667 14.333 279.667 36.202 M37.500 22.684 C 26.536 24.828,27.859 40.789,39.000 40.789 C 47.469 40.789,51.309 30.569,44.979 24.878 C 42.928 23.034,40.041 22.187,37.500 22.684 M98.634 22.684 C 93.401 23.524,89.976 28.975,91.465 34.094 C 93.853 42.308,104.946 43.221,108.549 35.500 C 111.635 28.887,105.930 21.513,98.634 22.684 M203.833 22.684 C 192.875 24.827,194.197 40.789,205.333 40.789 C 213.829 40.789,217.662 30.587,211.313 24.878 C 209.261 23.034,206.375 22.187,203.833 22.684 M260.624 22.690 C 252.016 24.046,250.357 36.027,258.243 39.885 C 264.336 42.866,271.319 38.478,271.319 31.667 C 271.319 25.935,266.374 21.784,260.624 22.690 M387.634 22.689 C 378.937 24.059,377.264 35.982,385.223 39.876 C 391.242 42.820,398.333 38.381,398.333 31.667 C 398.333 26.047,393.272 21.800,387.634 22.689 M91.667 88.667 L 91.667 123.667 100.333 123.667 L 109.000 123.667 109.000 88.667 L 109.000 53.667 100.333 53.667 L 91.667 53.667 91.667 88.667 M127.710 54.234 C 124.604 55.332,122.353 58.717,122.341 62.308 C 122.334 64.401,142.743 114.819,145.511 119.547 C 148.526 124.697,157.148 124.697,160.153 119.547 C 162.425 115.655,183.123 64.812,183.264 62.778 C 183.709 56.383,177.032 51.772,171.196 54.444 C 167.698 56.045,168.094 55.316,159.507 76.000 C 155.892 84.708,152.904 91.865,152.868 91.905 C 152.832 91.944,149.587 84.294,145.657 74.905 C 137.892 56.352,137.659 55.925,134.500 54.451 C 132.537 53.535,129.925 53.451,127.710 54.234 M196.667 88.667 L 196.667 123.667 205.333 123.667 L 214.000 123.667 214.000 88.667 L 214.000 53.667 205.333 53.667 L 196.667 53.667 196.667 88.667 M331.000 54.164 C 318.600 56.943,310.202 64.958,306.725 77.333 C 306.290 78.881,306.191 82.628,306.088 101.417 L 305.965 123.667 314.809 123.667 L 323.652 123.667 323.743 102.250 L 323.833 80.833 324.800 78.739 C 329.393 68.793,343.538 68.711,348.409 78.602 L 349.500 80.818 349.593 102.243 L 349.685 123.667 358.509 123.667 L 367.333 123.667 367.333 102.877 C 367.333 80.012,367.258 78.925,365.313 73.548 C 360.428 60.048,344.612 51.113,331.000 54.164 M380.333 88.667 L 380.333 123.667 389.167 123.667 L 398.000 123.667 398.000 88.667 L 398.000 53.667 389.167 53.667 L 380.333 53.667 380.333 88.667" />
</svg>