<svg xmlns="http://www.w3.org/2000/svg" xmlns:xlink="http://www.w3.org/1999/xlink" preserveAspectRatio="xMidYMin" viewBox="0 0 2300 1100">
   <title>HTML Macro Processor</title>
   <symbol id="document">
      <path stroke-width="5" stroke="black" fill="white"
         d="M 120,20 C 20,20 20,220 120,220 S 220,420 120,420 L 620,420 C 720,420 720,220 620,220 S 520,20 620,20 Z" />
   </symbol>
   <symbol id="document2">
      <path stroke-width="5" stroke="black" fill="white"
         d="M 20,20 L 20,820 C 20,870, 220,870 220,820 S 270,800 420,820 L 420,20 Z" />
   </symbol>
   <symbol id="arrow">
      <polygon stroke-width="5" stroke="black" fill="white"
         points="20,20 220,220 20,420 720,420 920,220 720,20" />
   </symbol>
   <symbol id="plugin">
      <path stroke-width="5" stroke="black" fill="white"
         d="M 20,120 L 120,120 C 120,20 320,20 320,120 L 420,120 L 420,220 C 520,220 520,420 420,420 L 420,520 L 320,520 C 320,420 120,420 120,520 L 20,520 L 20,420 C 120,420 120,220 20,220 L 20,120 Z" />
   </symbol>
   <use xlink:href="#document" x="20" y="20" />
   <text x="95" y="150" font-family="sans-serif" font-size="60" >HTML Template</text>
   <use xlink:href="#plugin" x="170" y="500" />
   <text x="320" y="830" font-family="sans-serif" font-size="60" >Macros</text>
   <use xlink:href="#arrow" x="750" y="300" />
   <text x="1050" y="520" font-family="sans-serif" font-size="60" >Macro Processor</text>
   <use xlink:href="#document2" x="1760" y="90" />
   <use xlink:href="#document2" x="1780" y="70" />
   <use xlink:href="#document2" x="1800" y="50" />
   <text x="1850" y="320" font-family="sans-serif" font-size="60" >HTML</text>
   <text x="1850" y="380" font-family="sans-serif" font-size="60" >Assessments</text>
</svg>