<svg xmlns="http://www.w3.org/2000/svg" viewBox="0 0 600 400">
  <path fill="#ababab" d="M0 200v200h600V0h-15.55c-13.9 0-15.55.2-16.05 1.75-1.2 3.95-3.8 8.25-5 8.25-.7 0-1.45-1.45-1.7-3.25l-.4-3.25-.15 3.25c-.2 3.8-4.65 7.65-6.15 5.25-.95-1.5-.15-8.05 1.15-9.45C557.75.75 557 0 553.6 0c-3.75 0-5.7 3-5.55 8.5.05 1.65.15 5.75.25 9.1.2 5.6-1.5 11.4-3.3 11.4-1.3 0-2.8-4.7-2.4-7.55.25-1.65.15-2.4-.2-1.7-.9 1.95-2.4 1.45-2.4-.75 0-1.1-.5-2-1.1-2-.7 0-.85.85-.45 2.25.4 1.25.9 4.15 1.1 6.5s.6 4.7.95 5.25-.2 1.3-1.2 1.65-2.6 1.35-3.6 2.2c-3.45 2.95-4.1-.45-2.2-10.75.4-1.95.05-1.6-1.4 1.3l-1.9 3.85-1.25-2.35c-2.75-5.15 0-16.5 4.4-18.2.75-.3 2.3-2.35 3.5-4.6l2.1-4.1H524.5C511.1 0 510 .15 509 2c-1.4 2.6-4 2.6-4 0 0-1.95-.65-2-24.05-2h-24l1.5 2.95c1.7 3.25 1.15 11.3-.9 13-3.7 3.05-7.6-5.8-5.6-12.7l.9-3.25h-4.35c-3.75 0-4.4.3-4.7 2.25-.2 1.45-1.1 2.35-2.6 2.55-2 .3-2.2.05-1.65-2.25.4-1.55.25-2.55-.4-2.55-.6 0-1.35 1.7-1.75 3.75s-1.7 4.7-2.95 5.85l-2.2 2.1-1.6-2.7c-1.2-2.05-1.35-3.5-.7-5.85.9-3.2-1.1-4.85-2.3-1.9-.35.95-.75.9-1.5-.2-1.5-2.15-2.5-.6-1.25 1.8.6 1.1 1.1 3.35 1.1 5s.4 3.15.85 3.3c1.4.55 2.45 7.85 1.15 7.85-.6 0-.85-.45-.5-1 1-1.65-1.15-1.15-2.6.6-1.1 1.35-.95 1.85.95 3.3 2.35 1.75 2.15 4.5-.35 5.45-1.85.7-6.9-6.8-6.25-9.25.35-1.25.1-1.8-.7-1.5-1.5.6-2-10.2-.5-11.1.5-.35.95-1.85.9-3.3-.05-2.55-.15-2.45-2.2 1.3l-2.1 4-1.6-3.75c-2-4.8-4.4-5.25-2.8-.5 1.5 4.4 1.5 12.4 0 13.9-1.55 1.55-6.55-8.95-6.6-13.9-.05-3.6-3.1-4.75-3.95-1.5-.45 1.65-.45 1.65-.6 0C399 .25 397.95 0 391.4 0c-6.7 0-7.5.2-6.4 1.5.7.85.8 1.5.25 1.5s-1.55-.7-2.25-1.5c-.85-1-3.1-1.5-7.05-1.5h-5.8l.85 2.95c1 3.45.35 6.85-1.8 9.3-2.2 2.55-2.75 2.25-4.2-2.5-.75-2.35-1.7-4.7-2.15-5.2-.5-.5-.85-1.7-.85-2.6 0-1.4-1.25-1.7-7.65-1.85l-7.65-.2 3.15 3.6C351.6 5.45 353 7.45 353 7.9c0 1.05-6.65-1.15-8.25-2.75-.6-.6-1.7-1.15-2.4-1.15s-1.75-.9-2.35-2-2.05-2-3.3-1.95c-1.95 0-2 .1-.45 1.05.95.55 1.75 1.65 1.75 2.45s.45 1.45.95 1.45 2.15 1.1 3.65 2.5c1.5 1.35 3.8 2.5 5.1 2.5 3.55 0 8.05 4.95 8.75 9.6.35 2.15 1 5.25 1.5 6.9 2.4 8.15 2.5 7.55-1.15 6.85-4.15-.8-5.6-1.95-7.3-5.8l-1.35-3.05L348 28l-.15 3.5-1.45-3c-.95-2.05-1.25-5.1-.95-9.5.4-5.6.35-6-.55-3.1l-1.05 3.45-2.4-2.95c-2.85-3.5-3.3-2.3-.45 1.35 1.1 1.4 2 3.55 2 4.8 0 1.3.45 3.55 1.05 5 .55 1.5.75 3 .4 3.35-.65.65-13.45-12.65-13.45-14 0-1.8 3.55-7.85 4.65-7.9.6 0 1.4-.7 1.7-1.5.5-1.25.25-1.35-1.35-.5-1.65.9-2 .75-2-.75 0-1.05-.7-2.75-1.55-3.8-1.5-1.85-1.5-1.85-.45.3 1.25 2.65.4 8.7-1.5 10.25-1 .85-1.5.55-2.05-1.2-.35-1.25-1.35-3.1-2.2-4-1-1.15-1.3-2.75-.9-4.75.7-3.55-1.8-4.45-2.85-1.05-.35 1.1-1 2-1.4 2-.45 0-1.6-.9-2.6-2-1.05-1.15-3.1-2-4.75-2-3.8 0-3.2 4.1 1.2 8.15 5.4 5 7.65 13.4 4.6 17.35-1.55 2-1.55 2-3 0-5.6-7.75-9.1-11.5-10.85-11.5-2.75 0-9.6-7.2-10.35-10.9-.6-3.1-.65-3.1-6.95-3.1-3.55 0-6.4.2-6.4.45 0 .2.45 1.6 1 3.05.9 2.4.8 2.6-1.25 2.3-1.8-.25-2.2-.85-2.05-3.3.25-2.85.2-2.9-.9-.75-1.35 2.75-2 2.8-4.3.25-3.6-4-5.7-2.65-3.5 2.2 1.35 3.05 1.6 4.6.85 5.5-.6.7-.85 1.85-.55 2.6.7 1.9-1.65 6.85-4.65 9.6L264 24.35v-4c0-2.15.4-4.4.9-4.9s.6-2.55.3-4.45l-.6-3.5-.9 4.5c-.5 2.45-1 6.75-1.1 9.55-.5 12.45-4.9 19.3-13 20.2-3.8.4-4.6.2-4.6-1.1 0-.9.45-1.65 1-1.65s1-.55 1-1.15c0-.65-1.05-.2-2.3 1-1.3 1.15-2.9 2.15-3.65 2.15-.7 0-2.8 1.35-4.7 3s-4.35 3-5.45 3-3.35.7-5.05 1.55c-4.35 2.3-4.7 1.1-1.45-5.1C228.05 36.5 233.05 32 237.15 32c2 0 4.25-1.05 6.35-2.9 1.85-1.55 3.85-3.05 4.45-3.25.65-.2 1.35-1.5 1.5-2.85 1.05-7.45 3.5-12.55 7-14.4C258.4 7.55 260 6.3 260 5.8s-.45-.65-1-.3c-1.3.8-1.3-1.1.05-3.55.8-1.55.7-1.95-.5-1.95-.85 0-1.8 1.1-2.1 2.4-.35 1.3-1.85 3.6-3.4 5.05l-2.75 2.65-1.65-2.5c-.9-1.4-1.65-3.65-1.65-5.05 0-1.5-.55-2.55-1.4-2.55-2.1 0-2.85 4.65-1.25 7.75 4.15 8.05-.2 17.6-8.5 18.6-2 .25-4.55.95-5.7 1.55-3 1.6-3.15 1.45-3.15-2.9 0-2.2.4-4 .85-4 1.6 0 3.25-5.05 2.2-6.8-.85-1.4-1-1.25-1 .95-.05 4.2-2.45 5.45-5.65 2.95-1.45-1.15-2.35-2.1-1.9-2.1.4 0 .25-.6-.35-1.35-.9-1.05-.65-1.75.85-3.15 1.1-1 2-2.25 2-2.8s-.9.05-2 1.3l-2 2.3V8.1c0-3.95.25-4.3 4.25-6.15l4.25-1.9-5.25-.05C220.1 0 218 .45 218 1.1c0 2.3-4.45 7.2-7.8 8.6-4 1.65-6.5.4-3.5-1.85 2.45-1.8 5.6-6.85 4.8-7.7-.35-.35-1.1.15-1.65 1.1C206.7 6.9 194 13.75 194 9.8c0-1.45 2.05-5.1 4.3-7.55L200.35 0H179.2l-1.15 3.2c-1.05 3.15-5.7 8.8-7.15 8.8-1.6 0-1.8-3.35-.4-6.7 2.2-5.15 1.85-6.35-.7-2.3l-2.15 3.5-.95-3.25c-.55-1.8-1.35-3.25-1.85-3.25-1.2 0-1.05 1.75.35 4.3 3 5.65.3 13-4.6 12.5-4-.4-4.05-5.8-.15-11.55C161.85 3.2 163 1.2 163 .75S149.6.1 133.25.25L103.5.5 103 5c-.65 5.85-2.25 5.75-3.35-.25-.9-4.95-2.05-5.7-5.7-3.7-1.35.7-1.95.7-1.95 0C92 .45 91.35 0 90.5 0c-.8 0-1.5.45-1.5.95 0 .55-1.4 1.75-3.15 2.6-3.3 1.7-5.45.6-4.35-2.3C81.75.45 81 0 79.45 0c-2.35 0-2.5.35-2.4 4.25.25 9.65-3.5 18.1-7.85 17.55-2.5-.3-4-8.35-2.1-11.3 1.25-2 1.8-6.05 1-7.35-.65-1-1.05-1.05-1.6-.2-.35.65-.45 1.4-.2 1.7.9.85-1.45 6.4-2.4 5.8C61.7 9.05 59.95 4 61 2c1.3-2.4-3.55-3-5.95-.75-1.05 1-1.2 1-.65 0C54.95.3 53.55 0 48.75 0c-6.2 0-6.45.1-8 3.25l-1.6 3.25-1.3-3.25C36.9.9 35.9 0 34.3 0c-2.7 0-2.7-.2-.8 4.35 2.1 5.05 1.9 7.35-1.25 13.9-3.75 7.85-6.35 6.25-4.9-3l.6-3.75-1.3 3.45c-1.4 3.7-3.3 2.7-2.1-1.1.35-1.15.1-4.75-.6-8L22.75 0H0zM98.35 11.6c.7 2.1-2.75 7.9-4.2 7-.35-.2-.7 2.85-.8 6.85-.15 7.6-1.2 10.3-6.2 15.8C83.1 45.7 79.8 43.3 82 37.5c.5-1.25.6-2.55.3-2.85-.3-.35-.15-1.2.35-1.9s1.55-3.05 2.25-5.25c.75-2.2 2.1-4.9 2.95-6 1.55-1.85 1.55-1.9-.2-.5-1 .75-2.25 2.45-2.75 3.7-1.9 5.1-3.15 2.4-2.7-5.85.5-8.65.85-9.25 7.75-13.85 1.25-.85 3-2 3.85-2.65 1.4-1 1.8-.55 2.75 3 .6 2.3 1.4 5.1 1.8 6.25M578 6.55c-.75 2.25-2.1 3.9-3.65 4.5-3.6 1.35-3.75 1.2-1.95-1.5.85-1.35 1.6-3.1 1.6-3.9C574 4 578.35.8 578.85 2.1c.15.5-.2 2.5-.85 4.45M445 7.6c0 1.95-.4 2.45-1.5 2.05-1.25-.5-1.35-.25-.55 1.2.7 1.3.5 2.45-.55 4-1.8 2.55-.7 2.95 1.15.4 2.15-2.9 2.95.9 1 4.65-1.95 3.8-4.05 4.15-3.1.5.4-1.65.25-2.35-.4-1.9-.6.35-1.05 2.8-1.05 5.5 0 9.15-4.25 6.05-5.35-3.9-.7-6.25.65-9.9 2.9-8.05 1.15.95 1.45.85 1.45-.65 0-1 1.25-2.85 2.75-4.1 3.45-2.8 3.25-2.8 3.25.3M61 20.05c0 4.3-.25 5.05-1.6 4.55-.85-.35-2.1-.6-2.75-.6-4.3-.05-6.7-11-3-13.95L56.3 8l2.35 3.45c1.7 2.5 2.35 4.85 2.35 8.6m323.95-5.7c.05 1 .95 2.05 2.05 2.35 2.15.55 4 5.6 4 11.05 0 3.8-2.15 4.4-3.8 1l-1.05-2.25-.1 2.35c-.05 1.55.65 2.5 2 2.85 2.2.6 5.95 7.05 5.25 9.05-.95 2.55-7.3 1.5-7.3-1.15 0-4.2-1.3-6.6-2-3.65-.8 3.5-2.5 3.55-5.55.15-5.9-6.6-7.45-14.3-3.75-18.35 1.2-1.25 2.45-3.9 2.8-5.9l.7-3.65 3.35 2.15c1.85 1.2 3.4 3 3.4 4m-101.6-2.65 2.85 1.45-2 2.2c-1.05 1.15-2.45 3.75-3.1 5.7-1.5 4.8-4.6 7.15-9.75 7.5-5.35.35-5.8-1.45-1.35-5.35 1.65-1.45 3-3.3 3-4.1 0-.75 1.15-2.9 2.55-4.75 2.45-3.2 2.2-4.7-.35-2.15-.95.95-1.2.85-1.2-.35 0-3.2 3.2-3.25 9.35-.15M218 11.45c0 1.8-7.55 12.7-8.25 11.95-.3-.3-.25-1.75.2-3.25.4-1.45.6-3.1.45-3.65-.4-1.3 1.55-3.85 4.1-5.3 2.7-1.55 3.5-1.5 3.5.25m249.75 10.6c.7 7.75 0 9.7-2.6 7.1-1.05-1.05-2.7-2.35-3.65-2.9-1.55-.85-1.6-1.35-.4-4.85 3.5-10.2 5.65-10 6.65.65m109-2.75c1.35 7.1.45 12.2-2.95 16.95-3.4 4.8-5.85-1.55-3.2-8.25 1.25-3.15 1.25-3.3-.1-1.55-.85 1.05-1.5 2.3-1.5 2.75 0 3.25-1.95-.2-2.25-3.95l-.35-4.75-1.4 3.15c-1.2 2.8-8.45 8.25-9.5 7.15-.6-.6 2.1-7.9 3.2-8.65.5-.35 1.2-1.4 1.55-2.3s2.35-2.2 4.45-2.9 4.7-1.85 5.75-2.6c3.85-2.65 5-1.75 6.3 4.95M205.5 15.2c2.85-.2 3 15.85.2 20.15-4.75 7.25-11.5 4.15-7.2-3.35 1.8-3.2 1.95-4.95.15-2.55-2.1 2.85-2.8-.35-1.1-5.1.75-2.1 1.4-5.35 1.4-7.15.05-3 .25-3.25 2.3-2.6 1.25.4 3.15.7 4.25.6m-7.5 2.15c0 1.3-.95 3.55-2.05 5-1.6 2.05-1.7 2.5-.5 2.05 1.4-.55 1.45-.3.45 1.95-.85 1.8-.9 3-.15 3.85 1.65 2.05-.1 10.65-2.45 12.3-1.1.8-2.6 2.8-3.3 4.45-1.45 3.5-3 3.15-3-.7 0-2.5-.1-2.5-1.4-.75-1.15 1.6-1.15 2.1 0 3.25 3.55 3.55 3.85 8.85.85 14.75-3.1 6.15-4.65 6.55-5.55 1.4-.55-2.9-.65-3-.75-.75-.1 1.5-.45 3.45-.8 4.45-.45 1.1-.3 1.5.35 1.1 1.45-.9 2.9 1.1 3.75 4.95.35 1.75 1.55 4.2 2.6 5.4 1.1 1.25 1.95 3.3 1.95 4.55s.45 2.55.95 2.85c1.3.85.65 9.85-.8 10.35-.6.2-1.15.9-1.15 1.55 0 1.8-6.95 6.9-8.6 6.25-3.25-1.25-2.5-25.65 1-29.5 2-2.2 2-2.75.1-2.75-.8 0-1.5.7-1.55 1.55-.1 5.4-2.5 6.25-4.75 1.8-2.7-5.45-2.8-11.95-.2-16.7 1.1-1.95 2.25-4.3 2.6-5.25s2.15-2.65 4-3.8c1.9-1.15 3.4-2.8 3.4-3.6s.55-2.45 1.2-3.65 1.2-3.1 1.3-4.2c.05-1.1.5-3.05.9-4.4.5-1.4.45-2.1-.1-1.75-.55.3-1.55 3.1-2.2 6.2-1.3 5.75-3.9 9.45-6.6 9.45-1.45 0-1.4-5.35.1-10.3.55-1.7 8.2-7.3 9.5-6.95.35.1 1.9-1.25 3.5-3s2-2.55.9-1.75c-1.1.75-2.55 2.05-3.25 2.9-1.05 1.25-1.25 1.1-1.25-1.2 0-3.8 3.8-10.5 6.85-12.2 3.65-1.95 4.15-1.85 4.15.85m23.75.65c.95 0 2.7 2.8 2.5 4.05-.05.3-.35 2.4-.6 4.7-.5 4.5-4.8 11.65-8.4 14-4.35 2.9-3-4.6 1.45-8 2-1.5 3-2.75 2.2-2.75-.75.05-2.45 1.15-3.75 2.5-2.65 2.85-5.7 3.4-4.75.9.35-.85.6-2.9.6-4.55 0-2 1-4 2.9-5.9 1.55-1.55 2.65-3.05 2.4-3.3s.15-1.4.9-2.55c1.15-1.85 1.45-1.95 2.4-.6.6.8 1.6 1.5 2.15 1.5m65.2 2.05c-3.75 2.35-5.25.05-2.2-3.3 1.65-1.85 1.7-1.85 2.65.25.7 1.6.6 2.4-.45 3.05m130.05.1c0 1.05.9 3.65 1.95 5.8 3.05 5.9 2 16.9-1.3 14.15-6.3-5.2-8.85-16.05-5.15-21.75 1.85-2.8 4.5-1.75 4.5 1.8m35.55 4.1c.4 1.7.2 3.4-.45 4.05-.8.8-1.1.55-1.15-.85 0-1.05-.7-3.3-1.5-4.95-1.55-3.3-1.55-2.75.1 12.5.55 4.75.3 5.9-1.65 8.35l-2.2 2.9-1.5-2.9c-.8-1.55-1.95-3.15-2.5-3.5-2.45-1.6-.8-12.15 2.8-18.3l2.6-4.45 2.4 2.1c1.35 1.15 2.7 3.4 3.05 5.05M26 22.4c0 1.2.55 2.75 1.25 3.45 2 2 1.55 12.6-.65 15.05-3.7 4.1-5.4-1.85-2.45-8.7 2.3-5.35 1.85-6.8-.55-1.75-1.85 3.85-3.05 4.45-4 1.95-1.75-4.6 2.25-15.6 4.9-13.4.85.7 1.5 2.2 1.5 3.4m273 5.15c0 1.5.55 2.2 1.75 2.1 1.15-.1 1.85.7 2.1 2.3.2 1.4 1 3.4 1.75 4.5 1.9 2.7 1.85 8.55-.05 8.55-.8 0-1.7-.45-2.05-1s-1.85-1-3.4-1c-2.95 0-5.25-1.95-7.05-6-2.45-5.5-6.1-10.6-6-8.45 0 .5 1.1 3.2 2.45 5.95l2.45 5-3.4.3c-2.45.2-4.05-.3-5.5-1.75-1.1-1.1-2.4-2.05-2.8-2.05-.45 0-1.3-.85-1.95-1.9-1.25-2 5.5-11.1 8.25-11.1.65 0 1.75-.65 2.4-1.4 1.8-2.2 11.05 2.8 11.05 5.95M53.4 23.5c.9 1.35 2.3 2.5 3.1 2.5 1.8 0 1.8-.1.4 3.9-.9 2.6-5.75 6.1-8.4 6.1-1.25 0-1.2-9.65.05-12.05 1.85-3.6 2.75-3.7 4.85-.45M81 28c0 2.15-.45 4.15-1 4.5s-1 1.5-1 2.55c0 2.6-.95 2.45-4.25-.6-3.55-3.3-3.5-4.15.95-8.05 4.35-3.9 5.3-3.6 5.3 1.6m440.65.75c-1.65 3.2-4.65 6.1-4.65 4.5 0-.55.65-1.55 1.4-2.15.75-.65 1.95-2.6 2.7-4.3.7-1.75 1.45-2.65 1.65-2.05s-.3 2.4-1.1 4m-183.4 1.9c.6 1.3 1.9 2.35 2.9 2.35 2.05 0 5.3 5.3 5.45 9 .05 1.35.45 3.75.85 5.3.75 2.7.65 2.75-2.1 2.1-3.6-.85-7.35-4.2-7.35-6.55 0-1.1-1-2.05-2.45-2.4-1.3-.35-2.65-1.25-2.95-2.05-.3-.75-1.1-1.4-1.75-1.4-.7 0 .65 1.8 2.95 4.05 4.25 4.1 5.2 6.4 2.95 7.3-.8.3-.6.5.4.55 5.9.3 10.85 4 10.85 8.05 0 2.25.35 4.05.85 4.05.45 0 .65-1.45.4-3.25l-.35-3.25 2.05 2.35c3.9 4.5 2.8 7.65-2.7 7.65-10.25 0-17.8-7.2-14.6-13.9 1.35-2.8 1.45-3.9.55-4.8-.95-.95-1.2-.75-1.2.8 0 8.1-6.9 5.15-8-3.4-.7-5.45 1.1-11.9 3-10.7.55.35 1-.1 1-.95 0-5.55 6.8-6.25 9.25-.9m99.75 3.4c0 1.35-1.25 1.2-3.7-.55-1.95-1.35-2.05-1.35-1.6.5.3 1.05.8 1.85 1.15 1.8 1.6-.3 4.15 1.55 4.15 3 0 .85.9 2.55 2.05 3.75 2.95 3.15 3.05 9.8.15 12.7l-2.25 2.25-5.15-5.5c-6.6-7.05-7.7-15.8-2.6-20.7 1.55-1.45 2.8-3.35 2.8-4.15s1.15.25 2.5 2.25c1.4 2.05 2.5 4.1 2.5 4.65m91-1.25c0 1.8.7 4.35 1.55 5.65 1.05 1.55 1.2 2.6.5 3-.6.35-1.05 2.25-1.05 4.15 0 7.1-4.6 13.25-8.75 11.65-.7-.25-1.25.15-1.25.95 0 2.35-4.05 6.15-5.3 4.9-2.75-2.75-2.45-18.3.3-16.6.4.25.5-.6.25-1.9-.3-1.6.3-2.9 1.95-4.2 1.3-1.05 3.45-3.35 4.8-5.15 2.3-3.1 2.45-3.15 4.4-1.5 2 1.75 2 1.7.45-.75-1.2-1.9-1.3-2.95-.5-4.2 1.45-2.25 2.6-.45 2.65 4M184.3 30c-.3 1.1-.95 2-1.5 2s-2.35.95-3.95 2.1l-3 2.15.3-2.9c.3-2.25 1.1-3.1 3.85-4.05 4.75-1.6 4.9-1.6 4.3.7m384.2 7.15c.55 3.95.25 5.25-1.9 8.7-1.45 2.25-2.6 4.75-2.6 5.55s-.45 1.75-1 2.1-1 1.4-1 2.4-.85 2.55-1.9 3.5-2.2 2.85-2.55 4.2-1 2.25-1.55 1.9c-1.25-.8-.5-10 1.3-15.75.85-2.6 1.1-4.75.65-4.75s-1.3-1.9-1.85-4.25c-.95-3.85-1-3.65-.5 2.45.45 5.25.2 7.2-1.15 9.25l-1.75 2.65-2.3-2.15c-1.6-1.55-2.25-3.25-2.2-5.9 0-2.05-.25-4.65-.6-5.7-.55-1.75 5-7.5 6.3-6.5.2.2.65-.15 1-.65.35-.55 2.85-2.15 5.6-3.55l5-2.55 1.2 2.2c.65 1.2 1.45 4.3 1.8 6.85m-290.4-.95c5.55 5.95 5.5 5.8 3.15 5.8-1.45.05-1.5.2-.3.95.8.5 1.95.55 2.5.15 2.2-1.7 8.25-1.1 10.15 1 1.7 1.9 1.75 2.15.2 3-2.4 1.35-5 4.05-4.4 4.6.25.3 2-.65 3.9-2.1 5.8-4.4 12.35-1.85 14.05 5.55.35 1.45.9 3.4 1.25 4.25.85 2.15-3.85 2.2-5.65.05-.7-.85-2.2-2.05-3.35-2.65-1.6-.9-1.4-.35.9 2.4 2.2 2.55 4.05 3.65 6.9 4.1 4.6.65 9.2 3.8 8.8 6.05-.15.85.4 3.15 1.2 5.1 1.45 3.45 1.45 3.55-.85 3.55-1.25 0-3.65.25-5.3.6-2.3.45-3.7 0-6.35-2.25-4.4-3.7-7.45-5.35-9.65-5.3-1 0-.25.75 1.85 1.75 6 2.85 10.65 7.2 7.75 7.2-1.65.05-1.95.3-1.05.85.7.45 3.75.4 6.75-.1 6.35-1.1 10.45-.4 10.45 1.85 0 .85.4 1.25.9 1 .45-.3 2.1 1.25 3.65 3.5 1.55 2.2 3.6 4.45 4.55 4.95s1.6 1.7 1.45 2.7c-.15.95-.05 1.2.15.5 1-2.85 6.3 1.5 6.3 5.15 0 3.5 2.6 7.9 5.7 9.8 4.2 2.5 9.3 13.75 9.3 20.6 0 3.7-.95 4-3.5 1.2-1-1.1-2.4-2-3.15-2-2.35 0-5.8-4.95-6.5-9.3-1.35-8.4-2.9-14.1-4.35-16.35-.85-1.25-1.5-2.95-1.5-3.75s-.4-1.75-.95-2.05c-.95-.6-.2 2.45 2.1 8.15 1.5 3.9.55 5.25-2.05 2.9-1-.95-3.5-2.15-5.55-2.7-2.7-.75-4-1.85-5-4.2-3.25-7.65-3.6-8.4-3-5.9.55 2.05.35 2.2-2.2 1.7-2.5-.5-2.55-.4-.65.45 1.2.5 2.95 2.4 3.85 4.15l1.65 3.2-3.7-.6c-6.2-1-3.1.45 5.1 2.4 4.2 1 7.75 1.95 7.85 2.1 5.25 6.9 7.35 13.45 3.9 12.1-1.3-.5-1.2-.15.4 1.45 1.15 1.15 2.8 3.65 3.75 5.55.9 2 2.85 4 4.45 4.7 3.1 1.25 7.7 6 7.25 7.4-.2.5.2 1.25.85 1.65 1.3.8 2.35 12.95 1.1 12.95-.45 0-1.65-.9-2.65-2s-3-2-4.5-2c-3.5 0-8-4.15-8-7.4 0-1.35-.85-3.05-1.85-3.8-1-.7-2.4-2.35-3.1-3.7-.9-1.7-1.5-2-2.05-1.1-.45.7-1.25.95-1.9.55-.6-.35-1.85-.25-2.75.3-2.55 1.4-6.85-.5-9.85-4.45-1.85-2.4-3.2-3.3-4.4-2.9-1.1.3-3.25-.65-5.6-2.5-2.05-1.65-4.05-3-4.4-3-1.25 0 5.5 5.15 8.55 6.55 1.75.75 4.15 2.75 5.3 4.35l2.1 2.95-2.8.45c-2.05.3-1.7.45 1.3.55 4.2.15 6.75 1.5 7.85 4.15.35.8.45.5.2-.7-.85-4.6 7.6-3.2 9 1.5.3.95 1.1 2.9 1.85 4.35 2.35 4.6-1.8 5.45-6.65 1.35-1.6-1.4-3.45-2.5-4-2.5-.6 0 .15.95 1.65 2.1 1.45 1.2 2.45 2.75 2.15 3.5-.3.8 0 1.4.6 1.4.65 0 2 .75 3 1.7 1.65 1.5 1.8 1.5 1.25.1-1-2.7 3.15-3.25 6.2-.85 1.45 1.1 3.5 2.05 4.55 2.05 2.75 0 5.8 1.85 5.8 3.45 0 .8 2 3.05 4.4 5.05 5.65 4.6 7.85 9.9 8.15 19.5.2 8.1 1.45 12.3 4.55 15.6 2.55 2.75 2.4 14.6-.25 16.25-1.8 1.15-4.85-5.5-4.85-10.55 0-2.7-2-3.1-2.65-.5-1.15 4.35-4.35 2.3-4.35-2.85 0-3.55-.35-4.75-1.3-4.4-.7.3-2.55-.85-4.15-2.5-2.2-2.3-3.2-2.75-4.2-1.9-1.1.85-1.35.45-1.35-1.95 0-1.65.55-3.2 1.25-3.45.85-.3.5-1.5-1.25-4-1.35-2-2.65-3.45-2.85-3.2-.25.2-1.55-.5-2.9-1.55-1.35-1.1-2.85-1.75-3.25-1.5-1 .6-2.45-1.25-3.85-5l-1.15-3 .6 3c.35 1.65.65 3.45.7 4.05.05 1.1 2.7 4 2.7 2.95 0-.35 1.35.15 2.95 1.15 3.6 2.1 5.5 6.3 4.7 10.3-.5 2.65 0 3.45 4.35 7.15 3.7 3.1 5.15 5.1 5.6 7.8.4 2 1.5 5.25 2.5 7.25s2.15 5.5 2.5 7.75 1.1 3.8 1.65 3.45.75.2.4 1.25c-.3 1.05-.85 3.6-1.2 5.65-.4 2.1-1.1 3.45-1.65 3.1-1.25-.75-.3 7.55 1.8 15.8 1.8 7.2 1.8 12.3-.05 14.15-1.05 1.05-1.15 1.7-.3 2.55.8.8.85 1.45.1 2.2-1.65 1.65-4.35-.05-4.35-2.7 0-1.35-.4-2.25-.85-1.95-.5.3-.7 2.6-.5 5.1.35 4.4-.85 6.1-2.05 2.9-.35-.9-1.2-1.4-1.95-1.1-.7.3-1.3-.1-1.3-.85s.3-1.2.65-.95c.35.2.6-1.05.6-2.8-.05-1.75.25-4.55.65-6.2.75-2.95.7-2.95-1.15.5-1.55 2.85-2.05 3.15-2.5 1.75-1.85-5.5-1.75-5.4-2.9-2.9-.8 1.7-.75 2.5.1 3.05.9.55.85 1.2-.25 2.65-1.4 1.8-1.5 1.85-1.5.15-.05-1-.45-1.55-1-1.25-.55.35-.55 1.8 0 3.8 1.2 4.1 1.2 4.75-.05 4.75-.55 0-1-1.25-1.05-2.75 0-1.5-.75-3.65-1.6-4.75l-1.6-2 .85 2c2.2 4.9-.1 21.55-2.7 19.95-.5-.3-.9-.1-.9.5 0 .55.65 1.05 1.45 1.05 2.2 0 4.45-2.8 4.05-5-.2-1.05.05-2.2.55-2.55.55-.3.95-1.45.95-2.5 0-1.1.5-1.95 1.05-1.95.6 0 .85.4.55.85-1.35 2.15-1.5 8.7-.2 6.9 1.9-2.55 2.75-.9.95 1.85-1 1.5-1.15 2.4-.45 2.4.6 0 1.1.65 1.1 1.5 0 .8.45 1.5 1 1.5s1-.7 1-1.55.45-1.3 1-.95c1.6 1 1.15 2.1-1.4 3.25-2.05.95-2.5.8-3.45-1.35-.6-1.3-1.6-2.4-2.2-2.4s-.4.7.5 1.55c.85.9 1.55 2.25 1.55 3v2.2c0 .4-.45.8-1 .85-.55.1-1.4.2-1.95.25-.5.1-1.2 1.05-1.55 2.15s-1.45 2-2.45 2-2.05.6-2.35 1.35-2.65 1.95-5.2 2.65c-6.45 1.8-2.7 3.2 10.7 3.95 1.7.1-.6 3.05-2.3 3.05-1.05 0-2.7.4-3.65.9-4.05 2-7 3.05-11.25 3.9l-4.5.9 5.7.75c4.55.6 5.55 1.05 5.05 2.3-.45 1.2-.1 1.45 1.55 1 1.15-.3 2.25-.05 2.45.5.25.7.95.7 2.3 0 1.9-1 6.7-.1 4.9.95-.95.5-11.55 3.75-18.45 5.65l-3.5.95 4.3.1c2.6.05 4.05.5 3.7 1.1-.35.55.5 1 2 1 1.45 0 2.35.4 2.05.9s-1.35.7-2.35.45c-1-.3-2.45.2-3.15 1.1-.7.85-2.55 1.55-4.1 1.55s-3.1.45-3.45 1c-.35.6-1.05.8-1.5.5s-2.35.1-4.2.95c-1.8.8-5.05 1.7-7.25 2.05-4.8.8-3 2.45 2.65 2.5 2 0 3.95.45 4.3 1s2.05 1.05 3.8 1.1l3.2.15-3 .75c-2.5.65-2.05.8 2.6.9 6.4.1 7.9 1 4.75 2.7-2 1.05-1.25 1.25 5.7 1.85 12.25 1 12.35 1.05 7.55 2.45-2.4.7-5.25 1.05-6.35.75-1.05-.3-1.65-.2-1.25.15.4.4-1.5 1.2-4.15 1.75l-4.85 1.05 6.5 1.35 6.5 1.35-3.95.9c-4.5 1-8.45 1.5-13.55 1.75-2.75.15-3.1.35-1.55.95 3.05 1.2-1.15 2-6.95 1.35-3.6-.4-5.2-.1-7.3 1.45-1.5 1.1-4.5 2.25-6.7 2.6-2.2.3-6.7 1.1-10 1.75-3.3.6-7.05 1.1-8.35 1.05s-3.1.35-4 .85c-1.25.75-.55 1 2.85 1.1 5.2.1 26.65 3.65 23.25 3.85-5.6.3-1.45 2.05 5.5 2.35l7.75.35-8.15.2c-4.5.1-8.35-.2-8.5-.65-.2-.5-2.8-1.1-5.85-1.35l-5.5-.5 5 2.3c3.3 1.5 4.3 2.3 2.85 2.35-1.15 0-3.6.3-5.5.65-2.65.45-3.05.35-1.85-.6 1.2-.9.65-1.05-2.5-.7-2.2.2-5.75-.2-7.9-.95-2.8-1-4.85-1.1-7.3-.4-2.2.6-4.25.6-5.6-.05-2.2-.95-2.2-.95-.05-.55 1.15.2 2.75 0 3.5-.45.9-.6.2-.9-2.15-.9-2.3 0-3.05-.3-2.15-.9.85-.5-.75-1.05-4.5-1.5-13.5-1.55-10.4-3.3 9.65-5.55 3.6-.4 5.15-.8 3.5-.9l-3-.15 2.85-1.5c1.6-.85 4.4-1.5 6.25-1.5 1.9 0 3.4-.35 3.4-.8s2.8-1.3 6.25-1.9c9.1-1.65 21.8-4.3 25.3-5.4 1.7-.5 4.2-.95 5.5-.95 2.2-.1 2.25-.15.5-.85-1.55-.6-1.05-.9 2.35-1.45 6.55-1.05 3.7-3.3-5.2-4.1-7.8-.65-31.85-4.7-31.3-5.25.15-.2 2.3-.7 4.7-1.15l4.4-.8-8.35-1.25c-11.2-1.65-12.1-2.1-8.15-3.75 1.8-.75 3.75-1.3 4.35-1.3.65.05.25.5-.85.95-1.6.7-1.7.85-.3.95.9 0 2.35-.65 3.25-1.5 2.25-2.25 6.55-3.3 12.15-2.9 3.7.3 4.15.2 1.9-.4l-3-.75 3.35-.7c1.9-.4 4.65-.7 6.2-.7s3.1-.45 3.45-1 3.2-1.05 6.3-1.1l5.7-.15-4.5-.8c-2.45-.45-5.5-.95-6.7-1.2-1.25-.2-2.55-.7-2.95-1.05-.35-.4-1.7-.7-2.95-.7s-2.55-.45-2.9-1-1.7-1-3-1-2.7-.5-3.1-1.15c-.5-.85.75-1 4.7-.55 4.5.55 5 .45 2.9-.5-1.35-.6-3.25-1-4.2-.9s-2.9-.4-4.4-1.2c-2.65-1.4-2.65-1.4 2.7-2.15 4.65-.65 5.05-.9 3.05-1.65-1.3-.5-2.7-.65-3.15-.4-.5.3-1.15.1-1.5-.5-.35-.55-1.65-1-2.95-1s-2.6-.65-2.9-1.5c-.35-.8-1.75-1.5-3.1-1.5-1.4 0-2.55-.35-2.55-.8 0-.4-1.45-1.6-3.25-2.65-3-1.8-3.15-1.8-1.8-.1 1.35 1.6 1.3 1.75-.5 1.4-2.95-.55-2.5-3.4.5-3.1 1.35.2 2.7.65 3 1 .85 1.15 8.05 1.55 8.05.45 0-.55-2-1.45-4.5-2.1-2.45-.6-4.5-1.3-4.5-1.55 0-.55 4.35-.05 5.55.65 2 1.2 8.45 2.6 7.9 1.7-.3-.5-1.2-.9-1.95-.9s-2.15-.8-3.1-1.75c-1-.95-2.7-1.75-3.8-1.75-1.25 0-2.6-1.1-3.4-2.8-1.05-2.2-1.65-2.55-2.7-1.7-1.6 1.3-3-.3-2.15-2.45.3-.8-.1-1.95-.9-2.6-1.05-.85-1.45-.85-1.45-.05 0 .6-.7 1.1-1.6 1.1-1.2 0-1.45-.6-1.05-2.25.9-3.7-2.85-6.85-5.25-4.45-.8.8-1.1.45-1.1-1.4 0-1.65-1.05-3.3-3-4.75-1.65-1.2-3-2.75-3-3.45.05-.85.3-.8.9.15.7 1.15 1.05 1.05 1.85-.4.9-1.6 1.2-1.45 2.65 1.3.85 1.7 2.1 3.45 2.75 3.85.75.45.9.25.4-.55-.6-1-.35-1 1.35-.1 1.15.6 2.1 1.6 2.1 2.15s.45.75 1 .4 1-.25 1 .25c0 .9 7.75 9.25 8.6 9.25.3 0 .25-.45-.1-1-1.25-2 1.15-.9 4.35 2 1.8 1.65 3.8 2.95 4.45 2.9.8-.05.75-.25-.1-.6-.75-.25-1.75-1.65-2.3-3-.5-1.35-1.8-2.75-2.9-3-1.1-.3-2-1.25-2-2.15s-1.45-2.85-3.25-4.35c-3.65-3-2.75-6.6.95-3.75 1 .75.7.1-.7-1.5-2.2-2.55-2.25-2.8-.5-2.15 1.55.55 1.75.45.8-.5-.85-.85-.9-1.75-.2-3.05 1.65-3.15-.5-2-2.35 1.2-1.7 3.05-3.75 3.2-3.75.35 0-.8-.8-2.65-1.75-4.1-1.3-2-1.65-4.35-1.45-9.25.65-16.5.65-24.05 0-24.05-.4 0-.85 3.05-1.05 6.75l-.35 6.75-.2-7.25c-.1-4.05-.65-7.25-1.2-7.25s-1 .5-1 1.1-.7.85-1.55.5c-.9-.3-1.3-.15-.95.4s.15 1-.45 1c-.55 0-1.05.65-1.05 1.45s-.5 1.75-1.15 2.15-.9.3-.6-.2c.65-1.05-2.05-7.95-2.8-7.2-.3.3 0 1.7.65 3.1 1.55 3.4.5 6.45-1.6 4.7-1.8-1.5-2 .1-.25 1.85 1.65 1.65 1.45 12.05-.25 16.2-1.2 2.85-1.45 3-2.1 1.35-.6-1.55-.75-1.35-.85.95-.05 2.45-.3 2.7-1.55 1.65-1.65-1.35-1.95-4.75-.6-6.85.7-1.15 1.1-1.05 2.05.5 1 1.65 1.05 1.55.45-.65-.75-2.95-1.55-3.9-2.05-2.5-3.3 8.65-6.25-2.35-3.25-12.05 1-3.2 1.5-7.1 1.2-9-.9-5.45.55-10.05 4.75-15.4 4.8-6.05 5.65-6.2 6.5-1.3.85 5.25 1.55 7.05 2.15 5.5.6-1.6 3.3-1.65 3.3-.05 0 .9.3.9 1.1.1 1.5-1.5.25-3.35-1.8-2.6-1.05.4-1.4.25-.95-.45.35-.6-.7-2.6-2.35-4.4-3.35-3.65-3.65-5.4-1.45-8.3.8-1.05 1.45-2.5 1.45-3.2 0-.65.5-2.5 1.15-4.05s1.2-3.2 1.25-3.7c.15-1.4 2.6-1.95 2.6-.6 0 .7 1.35.35 3.4-.95 1.85-1.15 4.05-1.8 4.85-1.5.85.3 1.75-.1 2.1-1 .35-.85 1.75-2 3.1-2.55 1.4-.5 2.55-1.4 2.55-2 0-.9-4.45 1.35-6 3-.6.65-6 .95-6 .35 0-.25.5-1.4 1.1-2.5.6-1.15 1.2-3.45 1.35-5.2.55-6.5.5-6.3 1.5-4.7 1.2 1.9 2.6-1.05 1.65-3.5-.35-1 .7-2.95 2.9-5.25 1.9-2.05 3.5-4.05 3.5-4.45s.5-.75 1.1-.75 2.4-1.4 3.95-3.1c2.25-2.4 3.4-2.9 5.15-2.35 3.5 1.15 7.8.75 9.65-.85 1.1-.95 2.35-1.2 3.65-.65 1.1.45 2.7.8 3.5.8.85 0 .25-.45-1.25-1-2.75-1-3.45-2.55-2-4.4.4-.55-.55.3-2.15 1.9-2.85 2.8-8.1 3.25-13.85 1.1-1.95-.7-4 1.1-4.15 3.7q-.225 2.325-1.65 1.95c-.8-.2-2.25-.45-3.2-.45-.95-.05-1.75-.75-1.75-1.6-.05-1.35-.15-1.35-1-.05-1.4 2.15-1.25 2.7 1 3.3 2.7.7 2.5 2.5-.35 3.8-3.45 1.6-6.6-.3-6.5-3.85.05-3.55-.35-5.1-2.5-8.75-1-1.65-1.5-2.1-1.1-1 2.55 7.75 2.8 14.2.65 17.25-1.2 1.7-2.2 4.25-2.2 5.7 0 4.1-4.85 12.55-7.15 12.55-.45 0-.85-1.5-.85-3.4 0-1.85-.65-3.9-1.5-4.6-1.3-1.1-1.4-.65-.9 3.25.55 3.7.15 5.45-1.9 9.4-1.4 2.65-2.8 6.05-3.1 7.55-2 9-7.7 9.2-7.5.3.05-2.75-.2-7.05-.6-9.6-.85-5.35 2.55-16.35 5.55-17.95 1-.5 2.05-2.65 2.45-4.95.35-2.2 1.45-4.55 2.35-5.25s1.75-1.7 1.85-2.25c.05-.55.5-1.9.9-3 .75-1.85.7-1.9-.9-.3-.95.9-1.7 2.3-1.7 3.1s-.65 2-1.5 2.7c-.8.7-1.5 2.1-1.5 3.1 0 1.3-.7 1.9-2.15 1.9-2.1 0-2.15-.3-1.55-8.75.7-10.75 2.7-15.5 6.25-14.75 1.35.25 3.6.75 4.95 1 1.8.4 2.5.1 2.5-1 0-.8.6-1.5 1.3-1.5s2.85-1.4 4.75-3.1 2.8-2.65 1.95-2.1c-4.75 3.15-9.4 5.2-11.95 5.2-3.5 0-4.6-1.3-2.55-3 .85-.7 1.5-2 1.5-2.9 0-3.2 5.8-8.35 8.8-7.8 1.6.3 3.35-.05 4.25-.85 1.2-1.1 2.4-1.2 4.95-.45 2.25.65 3.75.65 4.4 0 .55-.55 1.9-1 3.05-1 1.6-.05 1.75-.25.65-.9-.85-.55-2.25-.5-3.5.05-1.4.6-3 .6-4.6-.05-1.4-.55-1.9-1-1.2-1.05.7 0 1.95-1.65 2.8-3.6 1.8-4.4 6.9-7.75 10.4-6.85 6.1 1.55 15.25 2.05 13.45.75-1.9-1.4.6-4.45 4.8-5.9.95-.3 1.75-1 1.75-1.5 0-1.4-.35-1.25-5.1 2.55-3.15 2.5-5.4 3.5-7.95 3.5-3.25 0-8.15-2.25-6.95-3.25.3-.25 1.6-1.15 2.95-2.1 1.7-1.1 2-1.65.95-1.65-.85 0-2.75 1.35-4.25 3-1.45 1.65-3.65 3-4.9 3.05-2.75 0-6.75 3.2-6.75 5.3 0 .85-1.1 2.75-2.45 4.2-4 4.3-14.6 5.65-13.1 1.65.55-1.3.3-1.3-1.35.2-1.1 1-2.5 1.45-3.2 1.05-.75-.5-.95-.35-.5.4.4.65.15 1.15-.6 1.15-1 .05-1 .2.1.9s.95 1.1-.8 2.05c-1.2.65-1.9 1.6-1.55 2.1.3.5-.1.95-.95.95s-2.2 1.25-3.05 2.75c-1.55 2.85-2.1 1.75-1.6-3.1.3-2.55-.8-6.65-1.75-6.65-.4 0-.6 3.1-.4 6.85.45 7.75-.8 11.45-3.55 10.45-3.6-1.35-4.45-6.35-1.6-9.5.95-1 1.85-3.5 2.05-5.55.25-2.75.05-3.35-.65-2.25-.55.8-1.05 2.45-1.05 3.65 0 3.4-2.75 5.1-4.45 2.75-2.65-3.6-3.45 3.8-1.05 9.75.4 1.05-.1 2.45-1.2 3.55-1.05 1.05-2.85 3.9-4 6.35-2.3 4.8-5.35 7.9-8.4 8.45-1.05.2-2.3.65-2.8.95-1.6 1 .15-3.85 2.9-7.95 3.95-5.95 4.2-6.5 3.05-6.5-.55 0-1.05.45-1.05 1s-.9 1.9-2 3c-3.35 3.35-3.75.05-1.6-13.4.5-3.15 5.7-8.25 9.05-8.9 1.5-.3 1.3-.45-.7-.55-2.95-.15-3.45-1.05-1.55-2.95 2.1-2.1 5.8-1.45 5.95 1.05l.1 2.25.45-2.25c.25-1.25.85-2.25 1.35-2.25 1.2 0 1.2.25-.05 3.45-.5 1.4-.7 2.55-.4 2.55.25 0 .95-1.35 1.55-3 .75-2.1 2-3.25 4.2-3.9l3.15-.9-3.3-.1-3.25-.1 1.55-3c1.15-2.2 2.3-3 4.3-3.05 4.75-.15 7.65-.95 9.2-2.6 1.35-1.45 1.25-1.55-1.25-1.1-7.2 1.25-1.55-4.3 6.7-6.55 6.35-1.75 10.5-4.5 5.05-3.3l-3 .65 2.8-2.55c1.55-1.35 2.35-2.5 1.8-2.5-.6 0-.75-.8-.4-1.75 1.25-3.3-2.85.95-4.35 4.45-1.35 3.3-7.1 6.05-8.45 4.1-.6-.95-5.1 4.45-6.2 7.45-1 2.75-4.65 2.3-4.05-.5.25-1.25-.8.2-2.35 3.25-2.65 5.2-3.05 5.55-7.3 6.1-5.05.7-5.75.5-4.3-1.35.55-.7 1.3-2.6 1.6-4.25.55-2.75.5-2.7-1.15.75-1.1 2.25-2.15 3.35-2.7 2.8-.6-.6-.95.75-1 3.5 0 4.95-.95 6.3-4.8 7-3.35.6-3.65-1.05-1.75-9.05 2-8.35 2.75-10 5.5-11.35 3.2-1.55 6.05-.8 5.25 1.35-.35.85-.15 1.5.4 1.5.5 0 .95-.65.95-1.4s3.3-4.4 7.4-8.1c4.85-4.4 7.2-7.25 6.95-8.35-.85-3.1 2.55-9.05 6.6-11.6 2.1-1.35 4.15-2.95 4.5-3.5 1.6-2.55 17.55-.55 17.55 2.2 0 .55 1.25 2.25 2.75 3.8 4.15 4.3 5.85 6.45 6.55 8.3.35.9 1.1 1.65 1.65 1.65 1.85 0 1.1-2.15-1.45-4.2-3.15-2.45-3.2-4.6-.1-5.35 2.7-.7 5.85.7 9 3.9 1.15 1.2 3.1 2.25 4.35 2.4 3.2.35 2.8-.5-1-2.1-5.4-2.3-7.85-5.65-4.15-5.7 2.45-.1 2.6-.2.9-.85-1.05-.45-3.5-.45-5.4 0-5 1.1-9.1.05-10.1-2.65-.5-1.25-1.7-2.75-2.65-3.3-1.55-.85-1.35-1.2 1.85-3.1 2-1.2 3.85-2.8 4.2-3.6.75-2 8.95-1.95 10.6.05.7.8 1.9 1.5 2.65 1.5.8 0 2.65.75 4.15 1.7l2.7 1.7-1.85-2.15c-1.85-2.15-1.85-2.15 1-2.85 1.55-.4 3.9-1.55 5.25-2.55 3.05-2.35 2.45-2.35-2.4.15-4.6 2.35-8.25 2.5-10.95.5-2.1-1.65-2.1-1.65 1.45-3.25 2.5-1.1 2.5-1.1-.7-1.2-1.75 0-3.45.4-3.8.95s-2.15 1-4 1c-2.4 0-4.5.95-6.95 3.1-3.6 3.15-10.6 4.55-16.25 3.25-3.95-.95-1.55-8.8 4.2-13.6 3.5-2.95 4.15-3.05 15-2.35 3.85.2 5.95.2 4.7-.05-1.3-.3-2.15-1.05-1.9-1.7.45-1.5 3.35-2.05 5.5-1.05.95.4 2.6.8 3.7.9 1.1.05 3.8.45 6 .85 3.15.55 3.6.45 2.2-.4-1.5-.95-1.6-1.35-.5-2.7 1.15-1.45 1.05-1.45-1.2 0-2.05 1.35-3.35 1.45-7.3.6-5.05-1.1-5.65-2.55-1.85-4.45 2.8-1.4 4.1-2.7 1.85-1.85-1.3.5-1.55.3-1.1-.95.35-.85 1-1.35 1.45-1.1.45.3 1.05.1 1.4-.4 1.75-2.8-2.9.25-7.95 5.25-4.55 4.55-6.3 5.65-7.9 5.15-6.25-1.9-10.7-1.8-12.7.35-2.8 3-3.15 2.75-2.55-2.1l.55-4.25-1.2 4.75c-.7 2.75-2.35 5.8-3.95 7.3-2 1.85-2.6 3.15-2.2 4.8.65 2.5-5.65 11.65-8 11.65-1.95 0-6.05 2.35-6.1 3.5-.05 1.05-1.5 4.65-4.15 10.1-2.3 4.85-11.95 9.4-13.7 6.5-.8-1.25 2.25-10.9 3.7-11.8.7-.45 1.95-1.95 2.85-3.3.85-1.4 3.5-4.4 5.85-6.75 2.35-2.4 4.05-4.55 3.7-4.85-.3-.35-1.95.9-3.6 2.75l-3.05 3.35-.15-3.5c-.3-8.55.45-10.55 6.4-16.75 2.85-2.95 4.95-4.25 6.85-4.25s3.4-.95 4.95-3.1c2.1-3 2.45-3.1 7.55-2.6 8.6.9 19.4-5.1 18.55-10.35C263.9 35 269 31 271.85 31c.75 0 3.55 2.35 6.25 5.2m-107.65-2.3c.3.5.1 2.15-.45 3.65-.75 1.9-.7 3.1.1 4.1C172.25 44.2 168.95 55 166 55c-1.35 0-3-6.8-3-12.45 0-5.8 5.35-12 7.45-8.65M457.5 38c-2.05 2.25-3.5 2.6-3.5.85 0-2.1 3.25-5 4.35-3.9.65.65.4 1.7-.85 3.05m-101.1-.5c2.05 1.35 2.2 2 1.55 6.25-.4 2.6-.55 5.05-.35 5.45.55.85-1.7 5.8-2.6 5.8-2.6 0-5.1-7-5.45-15.25-.2-4.25 2.45-5.1 6.85-2.25m-144.4 3c0 1.9-.7 5.25-1.6 7.5s-1.35 5.1-1 6.45c.85 3.4-1.05 11.25-3.6 14.8l-2.1 3-1.45-2.75c-1.1-2.15-1.2-3.3-.35-5.2 1.4-3 1.4-5.4 0-3.05-.55 1-1.35 1.6-1.8 1.3-1-.6-.55 4.6 1 11.35 1.2 5.35 1.2 5.45-1.65 7.9l-2.85 2.45-1.05-2.35c-.55-1.35-1.75-2.95-2.65-3.6-4.2-3.1-2.8-13.1 2.45-17.65 1.55-1.3 1.7-1.7.5-1.3-1.35.4-1.85-.35-2.35-3.4-.9-5.35 2.2-10.3 8.2-13.15 2.45-1.15 5-2.95 5.65-3.95 2-3.25 4.65-2.35 4.65 1.65m-146.5-.55c.95 1.1 2.55 2.25 3.55 2.55 2.15.7 3.8 6.7 2.05 7.3-.65.2-2.45 1.45-4.05 2.8C65.5 53.9 64 55 63.7 55c-1 0-2.6-6.1-2.05-7.8.4-1.3.3-1.4-.45-.3-.55.75-1.5 1.05-2.1.65-.6-.35-1.1 0-1.1.9 0 .85.6 1.55 1.3 1.55 4.45 0 2.65 14.6-2.2 17.85-4.15 2.75-6.1-3.9-2.95-10.05 1.1-2.15 1.1-3.8 0-3.8-.5 0-1.2 1.45-1.6 3.25l-.75 3.25-1.45-3.3c-1.8-4.25-.85-9.8 2.25-12.9 2.9-2.9 4.35-2.9 4.5-.05.1 2 .2 2.05.55.25 1.4-6.35 4.55-8.15 7.85-4.55m397.15.7c.5 2.1.15 3.1-1.6 4.5-1.25 1.05-1.8 1.85-1.2 1.85.55 0 1.3-.45 1.65-1 2.3-3.7 4.1 2.95 2.25 8.25-1.4 4.15-5.75 3.15-5.75-1.3 0-1.1-.45-1.95-1-1.95s-1 .45-1 1c0 1.4-4.3 1.25-6.35-.25-1.6-1.2-1.5-1.5 1.3-4.2 1.7-1.6 3.05-3.4 3.05-3.95 0-3.95 7.7-6.6 8.65-2.95m-96.5 4.15c4.5 4.55 7.45 14.1 4.85 15.7-1.7 1.05-6.85-8.4-6.15-11.35.15-.75-.2-1.05-.8-.7-1.55 1-1.35 2 2 8.9 5 10.2 2.45 16.5-4.2 10.4-4.25-3.85-6-11.3-3.6-15.05.75-1.2 1.25-3.45 1.1-4.95-.1-1.5.2-2.75.75-2.75.5 0 .65-1.15.3-2.5-.9-3.6.5-3.05 5.75 2.3M154.4 57.4c2.4 5.8 1.65 14.75-.9 10.6-.35-.55-1.1-.75-1.65-.4s-.15 1.2 1 2c1.1.75 2.3 2.85 2.65 4.65.4 1.8 1.3 4.2 2.05 5.35 1.95 3.1 2.85 9.05 1.5 9.85-.75.5-.9 2.25-.5 5 .65 4.4-1.45 10.55-3.6 10.55-1.65 0-2.95-4.75-2.95-10.75 0-3.05-.25-5.35-.55-5-.3.3-.6 2.4-.65 4.65-.05 4.55-.7 5-3.2 2.25-3.1-3.45-1.55-19.85 2.3-24.65 1.5-1.85 1.5-1.9-.15-.6-1.5 1.15-1.75 1.1-1.75-.45 0-1-.3-1.45-.7-1.1-.4.4-.6 2.25-.5 4.1.15 1.85-.2 3.7-.75 4.05-.6.35-1.05 1.85-1.05 3.3-.05 6.8-3.45 6.55-5.05-.45-2.55-10.85.25-22.95 6.65-28.85l2.65-2.45L151 51.3c1 1.2 2.5 3.95 3.4 6.1M543 53.6c0 .8-.95 1.4-2.1 1.4-1.5 0-1.95-.45-1.5-1.6.35-.85.6-2.05.6-2.6 0-.65.6-.55 1.5.2.85.7 1.5 1.85 1.5 2.6m-165.9 3.1c3.65 2.4 4 3 3.45 5.7-.85 4.25-2.15 5.25-4.3 3.45-3.8-3.3-4.6-3.05-1.5.5 5 5.75 4.2 9.65-1.3 6.05-2.85-1.9-3.2-5.7-1-11.9.95-2.8 1.05-4.4.35-5.25-1.65-2-.1-1.45 4.3 1.45m74.85-1.75c.85.55 2.15.55 3.1 0 1.25-.65 1.95-.3 2.8 1.6.6 1.35 1.6 2.45 2.15 2.45 1.95 0 5.2 9.2 4.5 12.8-.8 4.25-4.6 6.3-7.25 3.95-.95-.85-3.6-2.05-5.9-2.65-7.05-1.9-9.55-9.5-4.6-14.1 1.25-1.15 2.25-2.75 2.25-3.55 0-1.65.85-1.8 2.95-.5m16.65 3.55c.65 2.7.55 2.85-.95 1.65-.9-.8-1.65-2.55-1.65-3.95 0-3.25 1.6-1.85 2.6 2.3m79.35 1.3c-.15 5-1.5 7.1-2.25 3.4-.35-1.75-1.15-3.2-1.8-3.2-.75 0-.9 1.05-.4 3.25 1.95 9.05-.75 18.4-3.45 11.85-.7-1.7-1-4.15-.65-5.5s.15-3.65-.4-5.1c-1.05-2.75 1.4-9 3.1-7.95.45.25 1.05 0 1.4-.55 1.2-1.95 4.5.9 4.45 3.8m-499.8.7c.05.8.15 2.8.25 4.4.15 3.65 1.4 5 2.75 3.05 1.25-1.8.85-.7-1.95 5.2-3.75 7.95-8.45 7-8.55-1.8-.05-6.4 7-16.65 7.5-10.85m338.75 1.35c.55 1 1.05 2.7 1.1 3.75.25 7.15.75 8.9 2.5 8.9 1.95 0 2.45.75 5 8 2.15 5.95 2.5 13.2.75 15.4-1 1.3-1.2.5-1.05-4.6.25-7.75-.7-9.1-1.6-2.25-.6 4.55-.85 4.95-2.3 3.8-4.05-3.4-5.5-11.85-2.55-15.2 1.65-1.9 1.65-1.95-.05-1.35-1.4.55-1.7.2-1.5-1.55.15-1.25-.15-2.25-.7-2.3-.55 0-.85.65-.7 1.4.95 4.05-.7 6.3-3.3 4.45-2.4-1.75-3.35-9.3-1.2-9.3.45 0 .4-.7-.1-1.6-1.35-2.45.85-9.4 2.95-9.4 1 0 2.2.85 2.75 1.85m7.95-.75c3.4 1.2 3.45 1.65.9 9.85l-1.05 3.45-2.35-2.75c-1.3-1.55-2.35-4.05-2.35-5.6 0-1.6-.25-3.6-.6-4.45-.75-1.9 1-2.05 5.45-.5m154.75 3.4c-.35 1.4-.15 3.45.4 4.5.85 1.6.75 2-.4 2-2.25 0-2.6-1.35-1.5-5.35 1.1-4.05 2.5-5.1 1.5-1.15m12.95 5.2c-.35 1.35-1.15 2.25-1.85 2.05-2-.65-2-5.75 0-7.95 2.1-2.35 3.1.85 1.85 5.9m-157.1 3.9c-.25 3.7-1.15 7.55-2.1 9l-1.7 2.6-1.7-3.35c-2.45-4.7-2.6-7.85-.65-11.55.95-1.75 1.7-3.9 1.7-4.75 0-1.45.2-1.45 2.4 0 2.25 1.45 2.4 2.1 2.05 8.05m132.9-7.35c.3 1.2.2 2.6-.3 3.1-1.05 1.05-3.4-2.95-2.55-4.35 1-1.65 2.25-1.1 2.85 1.25M535 71.6c0 .8.55 1.3 1.2 1.15.7-.15 1.5 1.1 1.75 2.75.3 1.65 1.35 4.45 2.3 6.2 1.7 3.1 1.7 3.25-.1 4.25-1.05.55-2.15 2.35-2.5 4-1.25 6.25-4.6 3.15-4.7-4.3 0-3.65-.15-3.95-1.35-2.4-1.25 1.65-1.4 1.6-3.2-.4-1.35-1.5-1.55-2.25-.7-2.55s1.05-1.8.65-4.75c-.5-3.7-.25-4.5 1.7-5.9 2.5-1.7 4.95-.75 4.95 1.95m-203.6 5.8c3.45.85 3.3 2.3-.35 3.1-4.55 1-11.05-4.6-11.05-9.55 0-.5 2 .6 4.4 2.4 2.4 1.85 5.55 3.7 7 4.05m220.85-2.9c1.2 1.65 1.05 1.85-5.4 9.4-2.05 2.35-3.9-1.3-2.65-5.2.55-1.75 1.2-4.2 1.5-5.4.5-2.25 4.6-1.5 6.55 1.2m-420.85.25c-.85 3.6-3.4 6.55-3.4 3.9 0-1.5 2.85-6.5 3.75-6.6.15-.05 0 1.2-.35 2.7m425.45 8.95c.65 3.95.45 5.8-.8 8.25l-1.65 3.15-1.2-2.3c-2-3.95-2.25-10.8-.5-13.5 2.05-3.1 3.15-1.9 4.15 4.4M102.8 81.25c-.65 1.25-1.15 2.55-1.05 2.9.3 1.1-7.4 8.85-8.85 8.85-.75 0 .25-1.5 2.25-3.25 3.35-2.95 4.95-5.65 4.75-8.2-.05-.75 1.85-2 3.9-2.5.15 0-.3.95-1 2.2m35.2.85c0 .55-.45.75-1 .4-.6-.35-1 .75-1.05 2.7 0 3-2.75 9.65-3 7.3-.05-.55-.25-2.3-.45-3.9-.25-1.95.35-3.8 1.8-5.6 2.1-2.65 3.7-3 3.7-.9m208.6 1.65c3.65 2.45 7.7 19.9 5.75 24.9-1.45 3.7-5.1-.25-6.3-6.8l-.95-5.35.3 4.75c.6 7.9-3.45 3.95-4.85-4.8-.35-2.15-1.15-5.65-1.8-7.8-1.45-4.85 3.35-7.85 7.85-4.9m184.85 6.7c.35 1.9 1.4 4.1 2.35 4.8 5.85 4.45 7.7 7.8 7.75 13.8 0 4.45.5 6.45 2.05 8.15 2.65 3.05 4.4 7.25 4.35 10.6v2.7l-2-2.35c-2.3-2.8-2.7-.7-.45 2.55 2.8 4-2.3 8.7-5.15 4.75-1.75-2.4-1.7-4.05.35-7.5 1.45-2.5 1.5-3.3.3-6.9-1.75-5.3-3.05-5.25-1.6.1.85 3.25.8 4.3-.15 4.6-.7.25-1.25 1.25-1.25 2.25 0 3.05-1.9 3.3-2.65.35-.4-1.75-.25-2.9.5-3.15.65-.2 1.15-.85 1.15-1.4s-.65-.75-1.5-.45c-1.1.45-1.5-.15-1.5-2.15 0-1.5-.7-4.95-1.55-7.7-.9-2.95-1.3-6.8-1-9.5.55-4.7.2-4.55-.9.35-.65 2.85-.65 2.85-2.7 1-5.4-4.9-7.3-13.65-4.15-19.2l1.75-3 2.65 1.9c1.65 1.2 2.95 3.25 3.35 5.4m-391.95-.1c-1.15 1.75-1.4 3.6-.9 6.75l.65 4.4-2.6-2.5-2.65-2.5 2.15-6.25c2-5.85 2.25-6.15 3.55-4.3 1.2 1.75 1.15 2.35-.2 4.4m192.45-5.3c2.75-1.5 2.7-1.5 4.6 3.45 2.2 5.8 1.8 6.1-3.9 2.9-5.4-3-9.9-9.2-4.65-6.4 1.4.75 2.6.75 3.95.05M416 87.5c.75 1.35 1.6 2.5 1.9 2.5 2.3.1 3.1 1.85 2.15 4.6L419 97.5l1.95-2.3c2.25-2.65 4.05-.8 4.05 4.15 0 1.35.9 4.6 2 7.2 1.85 4.3 1.9 4.95.5 7.7-.8 1.7-1.5 3.6-1.5 4.3 0 5.5-4.75 2.1-5.4-3.85-.15-1.55-.8-3.3-1.4-3.9-.9-.9-.95-.4-.25 1.95.45 1.7.65 3.35.35 3.65-.3.25.35 2 1.45 3.85 1.05 1.85 2.25 5 2.65 7.05s1.8 5.85 3.2 8.5c2.75 5.3 2.3 11.7-1 15-3.55 3.6-10.95-7.9-10.45-16.2.2-3 .05-5.2-.35-5-2.85 1.8-5.15-11-2.7-15 1.05-1.7 1.9-4.3 1.9-5.8 0-1.65.75-3.15 1.85-3.7 1.05-.55 2.65-2.25 3.65-3.8l1.8-2.8-2.6 2.4-2.6 2.35.4-5.25c.5-6.65-.8-5.6-1.5 1.25-.65 6.6-2.05 6.9-4.95 1-2.8-5.5-2.75-6.2.65-11.4 3-4.55 3.55-4.65 5.3-1.35m134.2 1.75c.25 2.35.05 4.4-.4 4.6-.45.15-.8 1.4-.8 2.65 0 1.3-.45 2.65-1 3s-1 1.55-1 2.7c0 2.05-.05 2.05-2 .3-2.75-2.5-2.55-5.6 1.1-15.25 1.45-3.8 3.65-2.7 4.1 2m-441.45 1.3c-1 1.85-1.7 2.35-2.2 1.55-.4-.7.05-2.1 1-3.15 2.35-2.6 2.95-1.8 1.2 1.6m253.7.4c1.95 3.75 1.95 5.45-.05 7.1-2.15 1.8-3.35-.25-3.4-5.8 0-4.95 1.3-5.45 3.45-1.3m-271.15 5c-.7 2.65-2.9 4.5-3.75 3.1-.4-.6-.2-1.05.3-1.05.55 0 1.3-.9 1.65-2 .8-2.6 2.45-2.6 1.8-.05m461.9 4.65c.4 2.7 1 6.45 1.35 8.4.35 2.2.05 4.5-.8 6.2l-1.4 2.65-2.65-2.85c-3.1-3.2-3.35-5.55-1.2-10.65.85-2 1.5-4.95 1.5-6.55 0-4.8 2.4-2.75 3.2 2.8m-404.65-2c1.35.9 2.45 2.4 2.45 3.3 0 .95.5 2.2 1.1 2.8 3 3 2.65 14.45-.5 16.5-2.05 1.35-4.8-2.4-4.1-5.7.35-1.65.8-4.8 1-7s.1-2.9-.15-1.5c-.95 4.5-2.55 5.5-4.1 2.5-1.15-2.2-1.2-3.5-.15-7.6 1.45-5.6 1.2-5.4 4.45-3.3m222.05 2.85c-.25 1.1-.1 3.6.35 5.55.85 3.4.85 3.4.95-1.45.1-4.55.25-4.85 1.65-3.4 2.55 2.5 2.4 10.35-.2 12.95l-2.2 2.2-1.15-4.4c-.65-2.4-1.6-5.2-2.1-6.15s-.9-2.4-.9-3.2-.4-1.7-.9-2c-.8-.5-.3 2.45 1.5 8.95 1.65 5.85 2.1 9.6 1.1 8.6-2.25-2.25-2.75-1-.75 1.8 2.65 3.75 2.6 4.3-.6 8.1-2.45 2.9-2.75 3-3.7 1.35-2.8-4.95-3.85-21.2-1.55-23.95.6-.7.8-1.7.5-2.2s.35-1.85 1.45-3c1.05-1.15 1.95-2.6 1.95-3.15 0-.65.9-.6 2.55.15 1.9.85 2.45 1.75 2.05 3.25m63.2 5.45c-.65 5.5-2.8 3.15-5.35-5.9-.7-2.5-.7-2.5 2.5.5 2.15 2.05 3.05 3.7 2.85 5.4m-23.35 1.1c.45 2.35.2 4.15-.75 5.45-2.35 3.15-4-1.15-3.15-8.15.8-6.25 2.5-5.05 3.9 2.7m-322.2-4.9c-.25.95-1.55 2.75-2.9 4.05l-2.5 2.3L84 106.5c.65-1.65 1.1-3.1 1.05-3.25-.35-1.4.25-2.1 1.8-2 1.25.1 1.7.75 1.4 1.85m28.35 1.65c2.05 2.7 1.9 7.9-.2 6.15-2-1.65-3.3-4.95-2.65-6.65s1.3-1.55 2.85.5m327.15 3.1c2.05 1.25.1 12.75-2.6 15.45l-2.15 2.15-.15-4.5c-.4-12 .95-15.65 4.9-13.1m-357.85 4.8c-1.1 2.1-1.15 2.75-.15 3.1 1.35.45 1.65 4 .6 6.75-.5 1.35-.8 1.4-1.45.35s-.85-.95-.9.4c0 .95-.45 1.75-1.05 1.75-.55 0-.35-1.25.5-2.95 1.75-3.4 2-5.45.55-4.55-1.4.9-1.25-1 .5-5.2.85-2 1.8-3.3 2.2-2.95.35.35 0 1.85-.8 3.3m27.55-1.75c.35 1.05 1.75 2.65 3.15 3.55 2.35 1.55 3.65 12.55 1.5 12.55-.35 0-.7 1.45-.8 3.25-.15 1.8-.5 5.25-.85 7.75-.45 3.35-.15 5 1.05 6.5 1.6 1.95 1.6 1.95.55-.2-1.45-3.05-1.3-6.9.45-10.3.8-1.6 1.45-3.7 1.35-4.7-.85-9.95 1.65-13.45 4.55-6.3 3.15 7.9 1.9 14.55-2.1 10.85-3.6-3.4-2.95.15.65 3.75 1.65 1.6 3 3.3 3 3.8.05.55.8 1.75 1.7 2.75 1.5 1.7 1.5 2.15 0 6.1-.9 2.4-1.65 5.15-1.65 6.2 0 2.85-3.8-.9-4.8-4.75-1.45-5.5-5-5.45-5.7.1-1.5 11.05-3.65 12.7-5.8 4.45-1.2-4.6-1.5-5.1-1.6-2.65-.05 1.75.85 5.25 1.95 7.8 3 6.7 2.15 9.2-1.35 4.1-1.45-2.15-2.7-3.35-2.7-2.6s1.6 3.3 3.5 5.65c4.45 5.45 5.1 11.15 1 9.05-3.05-1.6-7.7-10.35-6.9-12.9.3-1-.2-3.45-1.15-5.5-2.45-5.15-.85-12.55 4.25-19.5l3.8-5.15.1-11c.1-15 .95-18.75 2.85-12.65m92 6.2c-.8 2.25-1.25 4.45-1 4.85 1.35 2.1-2.65 5.2-4.5 3.5-2.6-2.35 2.85-12.45 6.75-12.45.1 0-.45 1.85-1.25 4.1m172 1.65-1.65 2.75 2.1-2.4 2.15-2.4 2.5 2.35c2.9 2.7 3.05 4.85.8 9.25l-1.7 3.2-.85-3.25c-1.2-4.5-1.95-4.1-1.2.6 1.15 7.35-2.35 4.8-4.65-3.35-.2-.55-.9-1.6-1.65-2.35-1.65-1.65-.85-4.8 2-7.9 2.9-3.2 4.5-.55 2.15 3.5m60.1 4.05c1.1 7.35-.05 13.2-2.55 13.2-4.4 0-5.45-18.55-1.2-20.9 2.35-1.3 2.5-.95 3.75 7.7M459.9 134c0 2.45-.4 5.4-.8 6.5-.5 1.25-.05 4.15 1.15 7.8 1.75 5.1 1.1 13.4-.85 11.45-1.25-1.25-3.25-12.3-2.4-13.15 1.65-1.65 1.2-3.6-.65-2.9-.95.35-1.4.25-1.1-.35.35-.5.25-1.55-.25-2.35s-.45-2.15.1-3.2c.65-1.2.6-1.8-.05-1.8-.6 0-1.05.55-1.05 1.25-.05.85-.35.75-1.05-.25-1-1.5-.95-.9.55 6.5.3 1.35.1 2.5-.45 2.5s-1.65 1.55-2.45 3.4c-1.25 3-4.1 5.6-6.1 5.6-1 0 .45-8.85 2.65-16.25 1.1-3.7 2.45-6.75 2.95-6.75s.9-.55.9-1.2 1.25-2.55 2.75-4.25 2.1-2.5 1.3-1.8c-2.2 1.9-3.25 1.5-2.5-1 2-6.3 7.5 1.35 7.35 10.25m-264.55-6.8c.6 2.35-.7 3.75-3.45 3.8-2.75 0-3-1.25-.75-3.7 2.75-2.85 3.45-2.9 4.2-.1M80.4 128.5c-.4 1.55-.2 2.5.5 2.5.6 0 1.1-.35 1.1-.8s.7-1.7 1.55-2.75c1.35-1.7 1.35-1.55-.05 1.3-.85 1.8-2 3.25-2.55 3.25-.5 0-.95.8-1 1.75 0 1.6-.1 1.6-1.05-.05-.8-1.35-.75-2.65.15-4.75 1.45-3.6 2.2-3.85 1.35-.45m294.6 2.7c0 1.1-2.75 1-3.45-.1-.3-.5-.25-1.7.1-2.65.7-1.75 3.35.45 3.35 2.75m-126-2.25c0 .5-.5 1.25-1.1 1.6-.6.4-1.9 2.55-2.9 4.8-1.05 2.3-1.9 3.65-1.95 3 0-.6.7-2.85 1.65-5 .9-2.1 1.6-4.2 1.5-4.6s.5-.75 1.3-.75c.85 0 1.5.4 1.5.95m138.2 1.3c1.05 3-.4 10.85-1.95 10.55-2.85-.55-3.7-3.3-2.4-7.7 1.2-3.95 3.5-5.45 4.35-2.85m-13.9 3.1c4.45 1.85 6.55 4.5 4.65 5.75-1.15.7-1 1 .8 1.5 1.25.35 2.25.9 2.25 1.25.05 1.45-3.55 12.15-4.05 12.15-.9 0-3.95-7.5-3.95-9.8 0-1.15-.45-2.35-1-2.7-1.4-.9-1.25.7.65 6.2s2.25 13.8.65 15.4c-1.55 1.55-6.55-7.2-6.15-10.8.15-1.55-.1-3.4-.5-4.1-1.45-2.35 1.15-16.2 3.05-16.2.2 0 1.8.6 3.6 1.35m-177.3 2c0 1.25-1.1 3.35-2.5 4.65-1.35 1.25-2.75 3.8-3.1 5.65-.8 4.25-1.6 4.2-3.65-.05-1.35-2.85-1.45-4-.45-6.75 1.75-4.95 5.1-6.65 6-3.1.35 1.3.5 1.2.6-.5.15-3.05 3.1-2.95 3.1.1m1.45 6.5c.35 1.05.2 3-.3 4.3-.6 1.55-.6 3.1.05 4.25.55.95.7 3 .4 4.45-.35 1.45-.85 3.75-1.15 5.15-.8 3.5-1.05 3.55-3.85.35-2.9-3.25-3.45-8.8-1.2-11.85.75-1.05 1.15-2.5.85-3.25-.5-1.3 2.35-5.25 3.85-5.25.4 0 1.05.85 1.35 1.85m191.55 6.2c1.45 2.6 1.15 8.15-.45 10.3-1.5 1.95-5.55-4.2-5.55-8.45 0-.95-.5-1.9-1.05-2.1-.6-.2-.8-1.1-.45-2 .85-2.1 6.05-.55 7.5 2.25m-255.35 9.1c.4 4.35.2 7.25-.65 8.85l-1.25 2.35-2.4-3.95c-2.6-4.3-2.75-10.2-.25-14.2 2.1-3.35 3.85-.7 4.55 6.95m50.45-7.35c1.9 2.2 1.7 4.05-.75 7.8l-1.85 2.8-.85-4.7c-1.3-7.05.25-9.65 3.45-5.9m271.75 6.45c1.65 6.8 1.4 8.85-1.3 12.2l-2.4 2.9-.7-2.65c-.35-1.5-.35-3.85 0-5.3.4-1.65.25-2.35-.4-1.9-.6.35-1.1 1.4-1.2 2.3-.1.95-.45-.35-.8-2.8-.4-2.9-.2-5.05.6-6 .65-.85 1.75-2.85 2.4-4.5 1.35-3.45 1.8-2.75 3.8 5.75m-372.4-2.15c1.15 3.85 1.35 7.7.9 15.8l-.65 10.7-3.1.2c-2.25.15-2.7-.05-1.65-.75.8-.5 1.75-.75 2.15-.5.35.25.85-1.15 1.1-3.05.2-1.9-.05-3.6-.55-3.8-.65-.2-.6-1.95.1-4.7 1.2-4.6.65-7.15-.95-4.85-.75 1-.85.9-.4-.5.35-1 .6-2.55.65-3.5 0-1.4.2-1.4 1.5.3 1 1.35 1.45 1.5 1.45.5-.05-2.2-1.65-4.3-2.8-3.6-.55.35-1.5-.7-2.05-2.35-.65-1.8-.65-3-.1-3 .5 0 .95.7.95 1.55s.45 1.3 1.05.9c.55-.35.75-1.5.4-2.55-.3-1.05-.35-1.9-.05-1.9s1.2 2.3 2.05 5.1m299.5.65c.8 2.6 2 5.85 2.7 7.25 1.55 2.9 1.75 10.8.4 12.95-1.15 1.85-1.25 1.7-3.5-4.3-1.25-3.4-2.1-4.5-2.85-3.75s-.6 1.6.5 2.85c.85.95 1.6 2.4 1.65 3.25.05.8.5 3.65 1 6.3.9 5.15.45 9.7-.95 9.7-1.9 0-3.9-4.95-4.9-12.05-.55-4.1-1.3-8.25-1.6-9.2-1-3.3.5-6.2 2.2-4.05 1.55 2.05 1.55-.25-.1-4-.4-1-.3-2.8.3-4 .55-1.2 1.25-3 1.6-3.95.9-2.95 2.1-1.95 3.55 3m-261.65.75c2.1 2.45 3.75 4.8 3.8 5.25 0 .4 1.15 2.7 2.55 5.1 2.9 4.95 2.65 9.65-.65 12.65-1.95 1.75-2 1.75-2.15-1.6-.25-5.9-1.05-7.9-3.05-7.9-.75 0-.7.4.05 1.3.55.7 1.05 2.15 1.05 3.25.05 1.05.3 3.35.65 5.1 1.2 6-1.1 7.95-4.65 3.9-1.65-1.9-2.9-4.3-2.75-5.25.15-1-.3-3.25-1.05-5-1.9-4.6-.2-15.6 2.8-18.15 1.45-1.2 1.45-1.25-.15-.75-1.1.35-1.75 0-1.75-.95 0-2.45 1.4-1.65 5.3 3.05m107.1-1.9c1.9 4.9-.35 23.4-2.85 23.4-1.55 0-4.3-7.7-3.35-9.4q1.125-1.95 0-1.2c-2.2 1.3-2.35-1.65-.2-3.9 1.2-1.3 1.95-2.75 1.7-3.2-.65-1.05 2.2-7.3 3.3-7.3.45 0 1.05.7 1.4 1.6m-41 6.85c.35 1.4 1.75 4.15 3.1 6.15s2.25 4.05 1.95 4.5c-.3.5.15 1.9 1 3.1 2.65 3.85 2 5.8-1.9 5.8-2.3 0-4.35.85-6.15 2.5-7.65 7.1-8.55-5.45-1.5-21.65 1.75-4.05 2.55-4.15 3.5-.4m260.2 2.3c-.05 3.3.4 5.25 1.65 6.5 2.2 2.2 2.35 11.05.25 15.1-.85 1.6-1.5 4.95-1.5 7.5 0 2.95-.75 5.9-2.1 8.1l-2.1 3.45-1.5-2.8c-.8-1.55-1.3-3.9-1.05-5.2.25-1.35.2-2.4-.15-2.4-2.1 0-.4-12.1 2.05-14.7 1.45-1.55 2.4-3.35 2.15-4s.05-2.1.65-3.2c.9-1.7.85-1.95-.45-1.45-.8.3-1.5 1.2-1.5 1.95s-.4 1.4-.9 1.4-.7.8-.45 1.8c.85 3.15-3.2 5.9-4.65 3.15-1.45-2.65-.5-10.3 1.45-11.9.75-.65 1.6-2.15 1.95-3.45.45-1.9 3.45-4.3 5.7-4.55.35 0 .6 2.1.5 4.7m-46.6 2.8c0 1.2-.65 2.75-1.5 3.45-1.3 1.1-1.5.55-1.45-4.15 0-4.9.15-5.2 1.5-3.4.8 1.05 1.45 2.9 1.45 4.1m-163.45 9.25c-1.3 1.25-1.6-.9-.85-5.95l.8-5.35.3 5.35c.15 2.95.05 5.6-.25 5.95m-20.7-5.65c1.4 3.7-5.2 13-7.95 11.3-1.45-.9-1-7.2.6-8.8.85-.85 1.5-1.95 1.5-2.5 0-1.05 1.65-1.95 3.8-2.05.7-.05 1.65.9 2.05 2.05m255.55 10.2c5.15 9.4 4.5 21.15-1.4 25.5l-3 2.2v-2.1c0-1.3.8-2.35 2-2.65 1.25-.35 1.95-1.35 1.9-2.65 0-1.2-.3-1.6-.55-.9-.3.7-.95 1-1.45.7s-.9-.1-.9.5c0 .55-.45 1.05-1 1.05s-1-.65-1-1.4-.75-1.65-1.6-2c-1.25-.5-1.45-.25-.85 1.15 1.6 3.55 1.65 10.7.05 12.75-1.5 1.95-1.55 1.9-1.55-.8-.05-2.1-.5-2.7-1.8-2.5-2.25.4-2.05-6.2.45-11.85.9-2.1 1.6-4.2 1.5-4.6s.4-.75 1.2-.75c.75 0 1.6-.9 1.9-2s1.25-2 2.1-2c2.05 0 2.1-1.6.05-2.35-.95-.4-1.9.2-2.55 1.65-.55 1.3-2 2.9-3.1 3.6-3.15 1.95-1.9-6.35 2.3-15.4l3.2-7 .7 3.5c.4 1.9 1.95 5.7 3.4 8.35m-68.05-3.6c1.5 5.85 1.05 11.25-.95 11.25-.35 0-.35-.65-.05-1.4.3-.8.15-2.7-.35-4.25-.8-2.8-.85-2.8-.95-.35-.05 1.35-.5 3.15-1 3.95-.6.9-.4 2.15.5 3.45 1.7 2.45 1.95 6.05.35 5.05-.8-.5-.8-.15 0 1.35 1.4 2.65 1.4 3.5-.05 2.6-.65-.4-.9-.3-.6.2.95 1.65-2.85 7.55-4.05 6.15-3.15-3.85-3.35-21-.3-24.05.6-.6 1.1-1.75 1.1-2.6 0-1.25 4.15-8.3 4.6-7.8.1.1.9 3 1.75 6.45M220.5 179.7c1.2 2.8 1.3 4.4.55 6.6-.85 2.45-.8 2.75.35 1.75 1.95-1.6 2.15 22.8.2 25.45-1.15 1.65-1.35 1.5-2.1-1.6-.65-2.8-.85-3-1.2-1.2-.25 1.2.05 3.1.65 4.2 1.55 2.9 1.3 11.3-.5 15.5-1.75 4.2-3 4-3.95-.65-.35-1.8-1.3-4.7-2.1-6.5-1.9-4.2-1.35-17.55.85-20.05 1.75-1.95 3.25-6.1 2.9-7.95-.15-.65.3-2.25.95-3.5 1.1-2.05 1.05-2.1-.45-.9-.9.8-1.65 2.35-1.65 3.5 0 2.45-3.5 8.65-4.85 8.65s-2.25-9.15-1.55-15.4c.7-5.75 1-6.05 5.9-5.65 1.65.1 1.75-.05.5-.85-1.25-.85-1.2-1.3.5-3 2.75-2.75 3.25-2.6 5 1.6m-107.9 2.05c1.4 1.5 3.45 3.7 4.55 4.9 2 2.05 2 2.2.3 4.8-1.95 2.95-3.55 1.85-2.7-1.8.4-1.75.25-1.9-.8-.9-1 .95-1.05 2-.15 4.9 1.6 5.2.2 6.55-1.9 1.8-2.2-5-2.45-2.05-.3 3.15 2.65 6.3 1.65 15.9-1.15 11.35-2.1-3.4-2.2-7.7-.2-7.15 2.8.7 1.85-2-1.15-3.3-2.15-.95-2.25-1.35-1.6-7 .4-3.3.8-7.7.85-9.75.15-4.45.9-4.65 4.25-1m17.6 2.2c-.1 4.25-3.45 10.05-4.7 8.05-1-1.65.5-9 2.3-11.1 2.05-2.4 2.45-1.9 2.4 3.05m-45.65 1.15c1.9 3.7 2.8 9.3 2.85 17.4 0 6.4-2.05 19.25-2.3 14.1-.05-1.6-.9-3.5-1.85-4.25-1.65-1.3-1.65-1.4.15-1.15 2.2.35 3.25-6.65 1.35-9-.75-.9-.7-1.65.1-2.45 1.35-1.35 1.55-5.75.2-5.75-.5 0-1.15 1.25-1.4 2.75s-.4.75-.35-1.75c.1-3.65-.2-4.45-1.6-4.35-1.35.1-1.7-.7-1.7-3.8 0-2.6.4-3.75 1.1-3.3.6.4.8 1.85.45 3.3-.4 1.75-.3 2.2.3 1.3.75-1.15 1.1-1.05 2 .5.6 1 1.1 1.4 1.1.85s-.65-2.15-1.45-3.5c-.8-1.4-1.45-2.85-1.45-3.25-.1-1.6.95-.6 2.5 2.35m10.35 6.25c.15 2.85-1.95 1.45-3.5-2.4-1.25-3.1-1.25-3.25.1-1.5 1.45 1.85 1.5 1.85 1.6-.5l.1-2.45.8 2.5c.45 1.35.85 3.3.9 4.35m99.9 8c.3 9.1-.5 10.6-3.35 6.2-1.1-1.65-1.45-3.6-1.05-5.75.3-1.8.3-2.75 0-2.05-.85 1.9-2.4 1.5-2.4-.6 0-2.4 3.85-7.35 5.35-6.85.7.2 1.25 3.75 1.45 9.05m-73.4-2.7c.9 2.85-4.25 9.35-5.55 7-1.15-2 1-6.65 3.05-6.7 1.35 0 1.3-.2-.2-1.05-1.45-.85-1.6-1.35-.6-2.55 1.35-1.6 2-.95 3.3 3.3M94 195.4c0 .8.5 1.6 1.15 1.8.9.3.9.9.05 2.35-.65 1.05-1.15 1.7-1.15 1.45-.05-.3-.45-1.95-1-3.75-.55-2-.55-3.25 0-3.25s.95.65.95 1.4m314.6 17.5c-.3 2 .1 4.5.95 6.25 1.3 2.45 1.3 3.25.1 5.6-.75 1.5-1.15 3.35-.9 4.05s.1 2.5-.3 4c-.7 2.55-.8 2.5-1.55-1.55-.45-2.3-1.45-5.7-2.3-7.5-.8-1.8-1.8-5.5-2.15-8.25-.4-2.75-1.1-5.75-1.6-6.7-.55-1.1-.3-3.15.8-5.85l1.65-4.1 2.9 5.35c2.2 4 2.8 6.15 2.4 8.7M189 204c.7 1.65 1.6 3 2.1 3 1.8 0 3.3 7.9 1.95 10.4-.8 1.55-1 3.8-.6 6.45.7 4-1.45 9.6-2.8 7.35-.95-1.45-1-6.5-.1-8.7.4-1.1.4-1.65-.05-1.25s-1.35.3-2.05-.25c-.9-.8-1-.1-.45 2.95.9 5 .4 5.5-2.55 2.75-5.45-5.1-6-14-1.35-21.05 3.65-5.45 4.25-5.65 5.9-1.65m-68.1 5.75-1.25 3.75-.9-2.8c-.75-2.25-.55-3.25.85-4.85 2.35-2.55 2.9-.9 1.3 3.9m251.65-1.05c-.3.8-.1 1.15.4.8.55-.3 1.45.35 2.05 1.45.6 1.15.8 2.05.5 2.05s.1 1 .9 2.25c1.75 2.75 3.1 11.05 2.15 13.5-.6 1.55-.85 1.45-2.1-.75-1.05-1.9-1.4-2.1-1.4-.75-.05 1 .45 2.6 1.1 3.6 1.45 2.35.4 6.7-2.2 8.9-1.05.95-1.95 2.6-1.95 3.7-.05 2.45-1.55 5.1-2.25 3.9-2.5-4.45-2.6-24.75-.05-27.55.9-1 1.35-2.1 1-2.45s-.2-1.45.35-2.5c.7-1.25.7-1.85 0-1.85-.6 0-1.05-1.85-1.05-4.1 0-3.65.2-4 1.55-2.85.85.7 1.3 1.9 1 2.65m87.25 3.15c.2 1.2.75 1.95 1.2 1.65 1.5-.95 3.3 7.5 2.15 9.9-.95 1.95-1 1.9-1.1-.7 0-1.6-.5-2.55-1.05-2.2-.6.35-1.05-.75-1.1-2.7 0-1.8-.3-2.75-.55-2.05-.85 2.1-4.35 1.5-4.35-.75 0-4.9 4.15-7.6 4.8-3.15M109 212c1.25 2.3.2 7.95-1.1 5.9-.4-.75-.4-1.8.1-2.4s.5-1.7-.05-2.55c-.5-.8-.95-1.8-.95-2.2 0-1.35.9-.8 2 1.25m6.7 0c-.3 1.1-.05 2 .45 2 .55 0 .85.9.65 2.05-.35 2.45-2.15 2.7-2.65.4-.4-1.9.65-6.45 1.5-6.45.3 0 .35.9.05 2m352.35 3c1.55 0 1.05 2.75-.55 3.35-1.2.45-1.5-.2-1.4-3.15.1-2.05.35-2.9.6-1.95s.85 1.75 1.35 1.75m-385.4 3.25c-.35 1.25-.65 4.5-.7 7.25-.05 3.65-.3 4.45-.9 3-.6-1.55-.7-10.55-.15-12.25.55-1.6 2.2.3 1.75 2m374.8 2.95c.85 1.25 1.55 3.15 1.5 4.25 0 2.05 0 2.05-1.25 0-.65-1.15-1.95-1.9-2.95-1.65-1.3.25-1.75-.3-1.75-2.25 0-3.2 2.3-3.35 4.45-.35m-344.85 3.85c.2 3.35.2 3.35-1.15.9-1.75-3.1-1.8-5.25-.25-4.7.7.2 1.3 1.9 1.4 3.8m361.95 9.75c.45 5.35 1 8.8 1.2 7.7.5-2.3 2.25-4.5 2.25-2.8 0 1.2-2.85 8.3-3.35 8.3-.15 0-.3-.8-.25-1.75.25-5.4-1.75-20.35-2.5-19.1-.65 1-.85.8-.9-.85 0-1.5.45-2.05 1.4-1.7s1.6 3.45 2.15 10.2m45.8-9.3c-.4 1.1-.1 1.35 1.15.85 1.5-.55 1.6-.35.6 1.5-1.6 2.95-2.75 2.7-2.55-.6.2-3.1.25-3.25.9-3.25.3 0 .25.7-.1 1.5M76.6 228.45c-.35 1.4-1.3 2.55-2.1 2.55-1.95 0-1.95-1.6 0-2.35.85-.35 1.5-1.35 1.5-2.3 0-.9.3-1.4.6-1.05.35.35.35 1.75 0 3.15m45.5-.75c1.3 1.5 1.6 2.1.6 1.35-1.5-1.15-1.95-1.1-3.15.55-1.55 2.1-2.4 1.7-3-1.4-.3-1.5 0-1.95 1-1.55.8.3 1.45.05 1.45-.55 0-1.6.4-1.4 3.1 1.6m-36.45 6.8c-1.25 1.25-1.5 1.05-1.8-1.3-.75-5.2.25-7.1 1.8-3.4 1.2 2.8 1.2 3.5 0 4.7m-17.6-4.95c1.6.8 2.95 2 2.95 2.6 0 .75-.45.7-1.45-.1-.8-.7-2.05-.9-2.75-.5-.7.45-.95.4-.55-.05s-.05-1.4-1-2.1c-2.4-1.8-.8-1.75 2.8.15m346.15 7.15c-.4 1.85-1.15 3.25-1.7 3.1s-.85-1-.7-1.8c.2-.85.35-3.05.35-5 0-1.9.3-3.9.65-4.45 1.05-1.7 2.15 4.6 1.4 8.15M187 231.75c2.25 2.85 1.15 4.45-1.55 2.2-1-.85-1.45-.85-1.45-.05 0 .6.45 1.1 1 1.1 1.25 0 1.35 5.7.1 6.45-1.3.8-2.1-2-2.1-7.55s.95-6.1 4-2.15m10 .9c0 1.75-.45 2.4-1.35 2.05-.95-.35-1.4.25-1.4 1.95 0 3.8-2.2 5.5-2.35 1.8-.2-4.45.15-5.8 1.8-7.7 1.95-2.15 3.3-1.4 3.3 1.9m-104.7 5.3c1.05 1.35 1 1.4-.55.2-2.35-1.85-2.45.45-.1 3.75 1.55 2.2 1.55 2.25-.4 1.25-2.4-1.3-3.55-5.15-2.6-8.85l.65-2.7.9 2.4c.5 1.3 1.45 3.1 2.1 3.95m29.95-4.6c-.15.35-.25 1.1-.25 1.7 0 .7-.65.7-2-.05-2.7-1.45-2.55-3.05.25-2.65 1.25.2 2.15.65 2 1m7 7.85c.45 1.2.25 1.55-.8 1.15-1.7-.65-1.75-.3-.5 3.05.6 1.6.65 3.45.1 4.85l-.9 2.25-.2-2.5c-.1-1.4-.1-2.9 0-3.4.05-.5-.55-2.75-1.4-5-1.45-3.8-1.45-3.95.05-2.1 1.5 1.9 1.55 1.85.95-1.5-.7-3.65.75-1.9 2.7 3.2m249.9-2.95c3.2 6 3.95 15.6 1.6 20.5-1.4 2.85-3.1 2.95-2.2.1.5-1.55.35-1.9-.6-1.3-.95.55-1.1.3-.5-1.15 1.65-4.2 1.7-4.85.15-2.95-.9 1.05-1.6 2.3-1.6 2.8s-.45.6-1 .25-1-.2-1 .35c0 .5.75 1.2 1.6 1.55 1.25.45 1.5 1.4 1.05 3.65-.4 1.9-.25 2.8.35 2.45.55-.35 1 .1 1 1 0 1.25-.4 1.35-2 .5-1.7-.9-1.85-1.45-.9-3.2s.9-2-.45-1.5c-4.75 1.85-3.7-16.65 1.2-21.55.65-.65 1.15-1.75 1.15-2.45 0-1.95.8-1.6 2.15.95m-301.5-.5c.9.6.85 1.2-.1 2.5-1.1 1.5-1.45 1.55-3.15.25-1.8-1.4-1.8-1.45.6-1.5 2 0 2.2-.25 1-1-.8-.55-1.05-.95-.5-.95s1.5.3 2.15.7m111.6 4.4c-.6 2.25-2.25 3.5-2.25 1.65.05-2.95 1.3-5.95 2-4.75.4.65.55 2.05.25 3.1M98.1 244.8c.7 1.8 1.4 2.2 3.15 1.7 1.7-.5 1.9-.4.75.4-1.75 1.2 7.15 5.65 9.5 4.75.75-.3 1.9.15 2.6.95 1 1.25.85 1.6-1 2.1l-2.2.55 2.25 2.45c2.05 2.15 2.4 2.25 3.45.8 2.2-3 6.55 4.15 4.5 7.4-.5.8-1.45 1.05-2.25.6-1.1-.65-1.1-.55-.1.55.7.75 1.25 2.05 1.2 2.9 0 1.95-2.25-1.65-2.45-3.95-.2-2.85-8.7-12.05-12.8-13.8-1.5-.65-3-1.85-3.35-2.7-.3-.8-1.1-1.5-1.8-1.5-1.6 0-4.75-3.45-3.9-4.3.35-.35 0-1.45-.75-2.45-1.3-1.6-1.25-1.65.45-.3 1 .8 2.25 2.55 2.75 3.85m-12.05-.5c2.35.3 9.6 6.4 9.6 8.1 0 1.15-.4 1.25-1.85.5-1-.55-1.6-1.4-1.35-1.85.7-1.15-2.15-3.35-3.35-2.6-.55.3-1.8-.3-2.8-1.4-1.05-1.05-2.95-2.45-4.35-3.05l-2.45-1.05 2.5.6c1.4.3 3.2.65 4.05.75m172.7 8.3c-1.4 1.4-2.85-1.8-2.2-4.75l.8-3.35.85 3.9c.45 2.15.7 4.05.55 4.2M420 247.4c0 2.2-2.6 4.35-3.8 3.1-.7-.65 1.9-5.5 2.95-5.5.5 0 .85 1.1.85 2.4m53-.65c.1.95.15 6.65.2 12.7.05 10 .15 10.7 1.45 8.25.8-1.5 1.65-2.7 2-2.7.3 0-.65 2-2.05 4.45-2.8 4.7-3.2 6.05-1.6 5.05 2.2-1.35.8 1.85-2 4.65-3.1 3.1-3.9 4.5-1.8 3.25.6-.4-.15.95-1.75 3-2.4 3.05-7.9 6.6-10.2 6.6-.3 0 1.5-2.2 4-4.85 7.05-7.55 13.8-25.15 9.65-25.15-.65 0-.9.8-.65 1.85.3 1.1-.05 1.8-.95 1.8s-1.15-.55-.7-1.55c.35-.9.85-4.3 1.1-7.6.55-7.5 2.95-14.6 3.3-9.75m7.25 5.7c.25 1.4.15 2.3-.25 2.05s-1.25 1.4-1.9 3.65c-.7 2.2-1.45 3.8-1.75 3.55-.45-.45 2.65-11.7 3.2-11.7.15 0 .45 1.1.7 2.45m-345.3 12.8c.05 7.2 2.1 13.85 5.4 17.5 1.1 1.25 1.6 2.25 1.05 2.25-.5 0-1.5-.95-2.25-2.1-.7-1.15-1.55-1.85-1.85-1.5-.35.3-.05 1.2.55 1.95.75.85.85 2.25.4 3.55-1.05 2.8-5.75-21.1-5.05-25.7.25-1.75.15-3.25-.25-3.45-.4-.15-1-1.85-1.3-3.75l-.65-3.5 2 4c1.35 2.75 1.95 6.1 1.95 10.75M421 253.5c0 2.85-1.45 3.35-2.45.85-.35-.95-.05-2.05.65-2.5 1.8-1.15 1.8-1.15 1.8 1.65m-323 5.05c.55 1.35 1.75 2.45 2.75 2.45 1.1 0 1.8.75 1.8 1.9 0 1.6-.45 1.4-3.2-1.2-1.8-1.65-3-3.5-2.65-4.05s0-.8-.8-.55c-.75.25-2.75-.85-4.4-2.45l-3-2.9 4.3 2.15c2.4 1.25 4.7 3.25 5.2 4.65m393.3-.9c-.45 1.2-.25 1.45.65.9 1-.65 1-.35.1 1.35-1.15 2.2-3.05 2-3.05-.25 0-1.1 1.9-3.65 2.65-3.65.15 0 0 .75-.35 1.65m.2 7.6c-.15 3.45-1.45 6.5-3.05 7.15-.8.3-1.45 1.3-1.45 2.2 0 1.4.25 1.45 1.75.25 1.6-1.25 1.6-1.2.35.4-.75 1-1.6 1.55-1.9 1.3-.55-.6-3.1 2.5-3.15 3.8-.05.5.6.6 1.45.3.8-.35 2.5-.2 3.75.3 2.25.9 2.25.9-.25 1-3.15.1-4.35.9-6 4.05-1.2 2.3-1.2 2.4.35 1.1 2.4-1.95 3.15-.7 1 1.8-.95 1.1-2 1.65-2.35 1.1-.3-.5-1.2.05-1.95 1.3-1.2 1.95-1.2 2.05.15.95 1.25-1.05 1.95-.95 3.7.5 2.15 1.75 2.15 1.75-2.35 1.8-2.5 0-4.55-.05-4.55-.05 0-.05.9-1.85 2-4s2-4.55 2-5.25c0-.75.4-1.1.9-.8s1.15-.1 1.45-.9.05-1.6-.55-1.8c-1.25-.4 1.4-6.15 4.45-9.45 1.1-1.2 2.15-3.35 2.3-4.7.25-2.25 1.15-4.6 1.8-4.6.15 0 .2 1 .15 2.25m-234.65 9.25c.05 4.5-1.5.3-2.15-6.05l-.55-4.95 1.35 4c.75 2.2 1.35 5.35 1.35 7M506 271c.55 0 1 .9 1 2 0 3.2-1.5 2.3-2.95-1.75-2-5.65-2.25-7.15-.55-3.5.8 1.8 1.95 3.25 2.5 3.25m-36-3.95c0 .35-.9 1.8-2 3.2s-2 3.05-2 3.6c0 .8-3.55.95-5.85.25-.25-.05.2-.8.9-1.65s1.95-1.3 2.75-1c1.6.65 4.2-1.05 4.2-2.75 0-.55-.9-.2-2 .8-2.4 2.15-2.65 1.3-.4-1.3 1.5-1.8 4.4-2.55 4.4-1.15M126.45 280.5c.05 3.85.7 8.95 1.4 11.35.7 2.35 1.1 5.05.85 6-.25.9-.75-.3-1.2-2.65-.45-2.4-1.3-4.85-2-5.55-.65-.65-1.05-2.95-.85-5.15.55-6.6.3-10.7-.7-12.6-.5-.95-.9-2.6-.85-3.6.2-5.05 3.3 6 3.35 12.2m-17.2-3.1c-.3.5-1.15-1.05-1.9-3.5-1.75-5.85-1.6-6.25.65-1.45 1 2.2 1.6 4.4 1.25 4.95m21.75-6.15c.05.85.35.75 1.1-.25.8-1.2.9-1.05.4.7-.35 1.25-.1 3.15.5 4.3 1.4 2.65 2.3 12.1.95 9.95-.5-.8-.95-3.1-.95-5.15 0-2-.45-3.95-1-4.3s-1-.05-1 .6c0 .7-.3.95-.65.6-1-1.05-1.25-7.7-.25-7.7.5 0 .9.55.9 1.25M355.5 276c-.95 3-2 2.4-1.85-1 .15-4.4.3-4.7 1.45-2.75.55 1 .75 2.7.4 3.75m107.15-.05c1.55-1.25 1.5-.95-.3 2.1-1.15 1.95-2.35 5.25-2.75 7.25-.4 2.05-1.05 3.7-1.55 3.7-2.05 0-1.9 3.15.2 4.05 2.05.9 2 .95-.45.45-2.15-.4-2.6-.2-2.15 1 .3.8.05 1.5-.6 1.5s-.9.45-.55 1c.35.6 1.15.75 1.8.35.65-.35.95-.35.6 0-1.45 1.65-10.45 5.55-10.75 4.65-.5-1.5-2.15-1.2-2.15.35 0 .75-.85 2.15-1.95 3.1-1.95 1.75-4.7 8.1-3.1 7.1 1.4-.9 2.15 2.5.75 3.75-3.75 3.5-5.7-4.15-2-7.85.95-.95 1.8-2.4 1.95-3.2.4-2.75 8.45-8.25 12.1-8.25.75 0 1.2-.55.95-1.25-.2-.7.65-3.35 1.95-5.95s2.35-6.15 2.35-7.85c0-4.05 1.9-7.75 3.05-5.9.65 1.1 1.1 1.05 2.6-.1M347.05 284c.55 0 .95.9.95 1.95 0 1.3-.5 1.8-1.4 1.45-1.65-.65-2.8-4.3-1.85-5.8.45-.7.85-.4 1.05.65.2.95.75 1.75 1.25 1.75M108 286.5c.7 1.35 1.7 2.2 2.15 1.9s.85.45.85 1.6-.45 1.85-1 1.5-1.3.15-1.7 1.15c-.35.95-.15 1.9.45 2.1 1.3.45.1 5.2-2.15 8.45-2 2.85-2 2.05-.05-2.7 1.2-2.9 1.35-4.4.5-6.75-1.3-3.8-1.3-4.05.05-3.2 1.6 1 .1-3.55-1.9-5.85-1.4-1.6-1.4-1.7-.05-1.2.85.35 2.15 1.7 2.85 3m36.4 3.15c.35.8.15 1.2-.4.85-1.85-1.15-1 1.45 2.05 6.45 2.9 4.65 3 5.15 1.55 7.2-1.5 2.15-1.55 2.1-1.05-1.65.25-2.1.15-3.55-.2-3.15-1 1-6.05-8.55-5.55-10.55.45-1.9 2.75-1.4 3.6.85m104.6-.7c0 .55-.8.7-1.75.35-1.55-.6-1.6-.45-.4 1 1.65 2 .9 2.15-2.15.55-2.1-1.15-2.1-1.2-.2-1.95 2.8-1.1 4.5-1.05 4.5.05m-95.65 10.25c2.15 1.5 4.3 2.5 4.8 2.2.55-.3 1.7-.25 2.65.15 1.35.55 1.1.85-1.25 1.55-2.55.7-3.4.45-5.9-2.15-1.6-1.6-3.45-2.95-4.15-2.95s-1.55-.7-1.9-1.55c-.65-1.75-.1-1.5 5.75 2.75M482 297.05c0 .6-.4.8-.9.5s-2.2.15-3.75.95-3.4 1.5-4.1 1.5-1.25.45-1.25 1.05c0 .55-1.25 2.2-2.75 3.55l-2.7 2.55 2.7-.7c3.75-.9 3.45.2-.5 1.95-1.8.8-4.6 2.6-6.25 4l-3 2.55h2.6c1.5.05 2.55.6 2.55 1.4 0 .85-.7 1.2-1.8.9-2.15-.55-7.85 1.55-7.85 2.85 0 .5.8.9 1.75.95 1.65 0 1.65.1-.05 1.05-1 .6-2.5.8-3.3.5-.85-.3-1.25-.15-.95.35.3.45 0 1.15-.7 1.45s-.2.3 1.15 0c1.55-.4 2.15-.25 1.65.5-.35.6-1.55 1.1-2.65 1.1-1.05 0-3.75 1.2-5.95 2.65s-4.25 2.4-4.55 2.1c-1.05-1.05 6.85-8.75 11.75-11.5 3.45-1.95 5.95-4.4 8.5-8.5 1.95-3.15 3.95-5.5 4.35-5.25.45.25 1.35-.2 2-1 1-1.2 1-1.5-.1-1.5-2 0 0-1.6 5.6-4.45 5.3-2.7 8.5-3.25 8.5-1.5M128 308.4c0 2.75-1.6.85-2.4-2.9-.6-2.85-.55-2.9.9-1.05.8 1.05 1.5 2.85 1.5 3.95m135.7-3.95c.45.5.3.6-.35.2-.65-.35-1.4.35-1.8 1.6-.65 2.2-2.2.65-2.5-2.5-.05-.95 3.65-.4 4.65.7m181.55 2.1c-.95 1.3-2.35 2.4-3.05 2.4-1.4.05-.9-1.3 1.6-4.2 2.2-2.55 3.5-1 1.45 1.8M171.1 313.5c1.45 3.1 2.25 5.95 1.8 6.7-.5.8-1.25-.5-2.05-3.5-.7-2.6-1.75-4.7-2.3-4.7-.6 0-1.65-.9-2.3-2-1.1-1.7-1-2 .5-1.95 1.1 0 2.65 1.95 4.35 5.45m-38.95 3.15c2.6 2.35 2.3 3.35-.65 2-1.35-.65-2.5-1.7-2.5-2.4 0-1.7 1-1.55 3.15.4m221.55 4.7c-.2.65-1.65 1.3-3.3 1.5-1.6.15-3.35.65-3.9 1.1-.55.4-2.35.2-4-.5l-3-1.3 2.5-.95c5.45-2.1 12.45-2 11.7.15m80.15 1.85c-.7 1.25-1.2 2.65-1.05 3.05.1.4-.25.75-.8.75-1.45 0-1.25-1.65.65-5.3.9-1.75 1.85-2.65 2.1-2 .2.65-.2 2.25-.9 3.5m-292.9 1.25c4.35 2.75 6.8 5.55 3.15 3.6-1.2-.65-2.45-.95-2.9-.7-.4.25-1.6-.15-2.65-.95-1.05-.75-1.55-1.4-1.1-1.4s.25-.7-.45-1.5c-1.8-2.15-.5-1.85 3.95.95m-37.25 4.75c0 .95-.65 1.95-1.4 2.25-1.05.4-1.1.1-.3-1.4.7-1.35.65-2.15-.15-2.65-.7-.4-.9-.25-.5.35.35.55-.05 1.3-.95 1.65-1.05.4-1.35.15-1-.65.35-.7.9-2.05 1.25-3.05.75-2.2 3.05.45 3.05 3.5m121.9 1.15c-.1 1.2.3 2.5.85 2.9.65.45.55.75-.25.75-.75 0-1.05.45-.7 1s-.1.7-1.05.35c-1.3-.5-1.35-.8-.3-1.45 1-.65 1.05-.85.1-.9-.7 0-1.15-.55-1-1.25.15-.65-.85-1.35-2.25-1.6-1.35-.2-2.8-.8-3.1-1.35-.45-.65-1.3-.65-2.5-.05-1.05.55-2.8.65-3.9.2-2-.8-.65-1.4 2.25-1 .7.05 2-.25 2.9-.75 2.85-1.6 9.1.6 8.95 3.15M435 327.5c0 .3-1.15 1-2.6 1.55-1.4.55-2.85 1.85-3.1 2.95-.3 1.1-1.15 2-1.9 2-.8 0-1.4.5-1.4 1.1s-1.35 2.8-3 4.9c-3 3.8-3.85 5.65-2.05 4.55 2.8-1.75 0 4.85-3.4 8-6.1 5.55-8.55 6.3-3.8 1.15 2.35-2.55 4.25-5.35 4.25-6.2 0-2.15 4.8-11.55 7.3-14.25 1.1-1.25 1.6-2.25 1.05-2.25s-2.2 1.35-3.65 2.95c-1.5 1.7-4.1 3.2-6.1 3.6-1.9.35-3.7 1.3-4.05 2.15-.3.85-1.25 1.25-2.05.95-1.45-.55-7.5 3.75-7.5 5.35 0 1.1-5.65 6.75-8 8-3.35 1.8-3.6 1.05-.35-.95 1.75-1.05 3.95-3.3 4.95-4.95 1-1.7 2.2-3.1 2.6-3.1.45 0 .8-.55.8-1.25 0-2.15 9.25-7.75 12.75-7.75 1.8 0 3.25-.4 3.25-.9 0-1.35 6.9-5.35 11.5-6.7 2.2-.6 4.1-1.2 4.25-1.25.15-.1.25.1.25.35m-60.2 5.95c-3.35 4.55-5.75 6.15-3.8 2.55.6-1.1 1.5-2 2.05-2 .5 0 .95-.65.95-1.45 0-1.15 2.4-3.35 3.8-3.5.15-.05-1.2 1.95-3 4.4m72.95-2.45c-.65 1.1-1.5 2-1.85 2-.4 0-.95 1-1.25 2.2s-.9 1.9-1.3 1.5c-.85-.9-4.45 4.35-3.75 5.5.3.45.05.8-.45.8-.55 0-1.2 1.25-1.45 2.75-.35 2.35-.4 2.2-.55-.8-.15-4.1 3.05-14.45 3.65-11.7.4 1.95 3.2 2.45 3.2.6 0-1.4 2.95-4.85 4.15-4.85.5 0 .3.9-.4 2m-214.6.55c3.55 1.85 3.5 2-1.35 2.75-2.85.45-3.55.25-3.15-.8.3-.75 1.15-1.15 1.95-.85.75.3 1.4.3 1.4-.1 0-.35-1-1-2.25-1.5s-1.65-.95-.95-1c.7 0 2.65.65 4.35 1.5m-123.8 3.15c1.7 1.35 2.3 2.4 1.6 2.8-.6.4-1.5 1.65-2.05 2.85-.8 1.85-.9 1.8-.4-.6.3-1.55.1-2.75-.5-2.75-.55 0-1-.75-1-1.6 0-1.35-.25-1.4-1.5-.4-1.3 1.1-1.45 1-.95-.6.6-1.8.55-1.8-.95.05-1.25 1.5-1.6 1.6-1.6.4 0-3.45 3.1-3.5 7.35-.15M398 338.55c0 .25-1.6.35-3.5.2-3.05-.2-3.3-.4-1.85-1.45 1.5-1.1 5.35-.2 5.35 1.25m-276.45 5.25c-.3.25-1.2-.1-2.05-.8-1.2-1-1.5-1-1.5.05 0 .85-.65.65-2-.55-3.75-3.4-2.3-4.7 2-1.85 2.25 1.45 3.8 2.85 3.55 3.15m-6.7-.7c1.25 2.25 2.1 4.25 1.85 4.5-.55.6-5.7-6.15-5.7-7.55 0-2.15 1.55-.9 3.85 3.05m62.65-3.1c.45.7-.85.8-3.7.4-5.7-.9-6.1-1.4-1.05-1.4 2.3 0 4.4.45 4.75 1m213.5 1c1.2.8 1.1.95-.75 1-1.25 0-2.9 1.1-3.85 2.55-.9 1.35-1.9 2.3-2.15 2.05-.55-.6 3.6-6.6 4.55-6.6.4 0 1.4.45 2.2 1m-129.9 4.2 4.15 2.3-3.9.65c-2.1.35-4.25.4-4.7.1-.5-.25-1.2.05-1.65.7-.55.95-1.7.7-4.6-.9-2.15-1.2-3-1.85-1.9-1.5 6.55 2.25 9.5.95 4.75-2.1l-2.75-1.75 1.9 2.15c2.85 3.25-.5 2.9-4.1-.4l-2.8-2.6 5.75.5c3.3.3 7.45 1.45 9.85 2.85m-131.1.3c-1.1 1.3-1 1.45.6.95 1.5-.5 1.6-.45.45.4-.8.55-1.8.8-2.25.5-.45-.25-2.05-1.1-3.55-1.9L122.5 344h4.35c3.85 0 4.25.2 3.15 1.5m217.75 1.95c-1.75 1.9-3.35 3.25-3.65 3-.55-.55 4.95-6.45 6.05-6.45.45 0-.65 1.55-2.4 3.45m-79 1.25c.45 1.35-5.75 2.35-7.75 1.2-1.1-.6-.8-.85 1.2-.85 1.45-.05 2.95-.5 3.35-1.1.75-1.25 2.65-.8 3.2.75m18.25 1.95c3.5 1 7.2 1.3 10.2.9 2.6-.35 6.8-.05 9.45.6l4.8 1.2-6.95 2.25c-3.85 1.25-9.9 2.8-13.5 3.5-5.6 1-20.45 4.65-38.55 9.35-2.8.75-10.1 1.9-16.25 2.6s-11.2 1.7-11.2 2.2c0 .45 2 .6 4.4.2 2.8-.4 5.8-.15 8.15.7l3.8 1.35-3.45.65c-3.15.65-3.1.7 1.1.65 7.35-.1 9 .15 9 1.3 0 2.2-19.05-1.1-24.35-4.2-1.55-.9-3.6-1.45-4.6-1.2s-2.15 0-2.5-.6-1.65-1.15-2.85-1.2c-5.65-.25 3.4-1.7 11.8-1.9 6.15-.15 8.2-.45 6.5-1-1.75-.55-.15-.85 5.5-1 6-.2 7.25-.45 5-1-1.95-.55-.15-.7 5.2-.55 4.55.15 8-.1 7.75-.55-.3-.45.5-1.05 1.75-1.35 1.25-.25 3.2-.65 4.3-.9s-.7-.5-4-.6c-5.15-.2-5.6-.35-3.1-1.1 1.6-.45 3.2-.7 3.55-.45 2.8 1.7 12.05 1.3 12.05-.5 0-1.7.55-1.9 4-1.6 2.25.25 3.75 0 3.45-.5s.9-.95 2.75-1c1.8-.05 5.55-.65 8.3-1.4l5-1.25-4.3-.15c-2.35-.05-5.7-.8-7.4-1.7-2.85-1.5-3.05-1.5-2.45.05.5 1.35.1 1.6-2.1 1.35-1.5-.15-2.6-.65-2.45-1.1s-.75-1.7-2-2.8l-2.3-2 5.5.6c3.05.35 7.95 1.3 11 2.15m-146.5.35c.35.6 1.05.75 1.6.45.5-.35.9-.25.8.25-.4 2.3.3 3.3 2.35 3.35 1.25 0 3.4.65 4.75 1.45l2.5 1.45h-2.7c-1.45.05-2.95-.4-3.25-.9-.35-.55-1.2-.75-1.9-.45-.7.25-1.8-.65-2.45-2.1-.65-1.4-2.2-2.95-3.45-3.45-1.6-.65-1.8-.95-.55-1 .9 0 1.95.4 2.3.95m351.65.95c1.8 1.5 1.95 2 .75 2-.85.05-2.4-.85-3.4-1.95-2.35-2.55-.45-2.6 2.65-.05m-53.4 5.85c-.8.95-2.1 3.15-2.85 4.95-.75 1.75-1.95 3.45-2.7 3.75-.8.3-.55-.65.7-2.3 1.1-1.55 2.55-4.7 3.25-7 1-3.15 1.5-3.75 2.15-2.6.55 1 .35 2.15-.55 3.2m45.1 2.7c-2.35 4-3.3 4.5-2.3 1.25.85-2.7 2.35-4.75 3.55-4.75.45 0-.1 1.55-1.25 3.5M161 361c1.55 1.65 2.45 3.2 2.05 3.5-.45.25-1.85-.85-3.2-2.4-1.3-1.6-3.5-3.1-4.85-3.35-2.4-.45-2.35-.5.35-.6 2-.1 3.7.75 5.65 2.85m246.45-2.1c.65 1.05-4.5 2.2-5.95 1.3-.55-.35.15-.95 1.5-1.3 3.55-1 3.8-1 4.45 0m-9.1 4.75c-2.75 4.3-6.35 6.8-6.35 4.4 0-.5.9-1.2 2-1.55s2-1.15 2-1.75c0-1.3 3.15-4.95 3.75-4.35.2.25-.4 1.7-1.4 3.25M186.5 368.6l3 2.55-3.3-2.15c-2.25-1.5-4.05-2-5.85-1.55-1.6.4-2.3.25-1.85-.4 1.1-1.85 4.9-1.1 8 1.55m230.4 13.15c-2.3 4.1-4.85 7.15-3 3.55.6-1.2 1.55-3.3 2.05-4.75.55-1.4 1.45-2.55 2-2.55s.1 1.7-1.05 3.75m-183.4-.2c-1.65.75-3.85 1.1-4.9.8-1.05-.35-1.6-.15-1.25.4.8 1.3-15.9 4.3-19.6 3.55-4.55-.9-3.9-1.8 1.1-1.5 3.8.3 15.6-1.9 16.75-3.1.2-.15-2.7-.4-6.35-.55-11.5-.4-8.15-1.15 4.85-1.05 11.3.05 12.15.2 9.4 1.45m17-.6c3.7.6 4.2.85 2 1-6.7.45-7.05 1.75-.7 2.45 5.55.65 6.1.85 4.7 2.2q-1.5 1.575-3.75.75c-1.25-.4-2.65-.65-3.1-.5-.5.1-1.9-.45-3.2-1.3-1.85-1.2-3.65-1.3-9.1-.65-8.5 1.05-8.75.85-2.7-2.3 5.1-2.65 7.7-2.9 15.85-1.65m46.35 2.15c-.6.35-4.05.65-7.7.65-5.3 0-5.95-.15-3.15-.7 4.3-.9 12.35-.85 10.85.05M235 387.7l2.5.7-2.5.8c-1.5.45.15.6 4.25.3 8.45-.55 8.95 1 .55 1.8-4.55.4-7 .15-9.25-1.05-1.65-.85-4.15-1.9-5.55-2.3-3.3-1 6.35-1.25 10-.25m-15.5 3.25 4 .8H220c-4.4 0-10.95-1.5-7-1.55 1.4-.05 4.3.3 6.5.75m-12.75 1.75c-.95.25-1.75.75-1.75 1.1 0 .4-2.55.85-5.7 1-6.05.3-6.55-.5-1.1-1.8 3.45-.85 11.6-1.1 8.55-.3m23.3.4c-1.35.55-7.2 1.15-13 1.35-7.55.25-9.7.05-7.55-.6 1.65-.5 4.8-.7 7-.45s5.6.1 7.5-.35c1.95-.45 4.65-.85 6-.9h2.5zm31.8.4c.2.25-2.5.35-6 .35-4-.05-5.6-.35-4.35-.85 1.85-.7 9.5-.3 10.35.5"/>
  <path fill="#ababab" d="M234.65 120.65c-1.15 1.2-.7 3.55.6 3.05.7-.25 1.15-.95 1-1.55s.45-.8 1.45-.45c1.1.45 1.4.25.9-.55-.8-1.25-2.9-1.55-3.95-.5m37.8 98.9c-1.9 1.55-1.85 1.55.55.9 1.4-.35 3.85-.65 5.5-.6 2.25.05 2.65-.15 1.5-.85-2.25-1.45-5.35-1.2-7.55.55m27.5 51.55c-.6 1.1-.85 2.7-.55 3.45s-.2 1.8-1.05 2.25c-1.7 1-5.25 10.35-5.3 14-.05 1.25-1.6 4.75-3.55 7.75-4.1 6.45-4.1 6.4-1.35 5.7 2.6-.65 4.95 2.1 4.45 5.15-.15 1.15-.1 1.6.1.95.65-1.9 4.35-2.4 5-.65 2.1 5.35.9 8.8-3.2 9.35l-4 .55 4 1.2c2.2.65 7.5 1.5 11.8 1.85 4.8.4 7.3.95 6.5 1.5-2.05 1.3 1.95 1 7.7-.65l5-1.35-4.8-.1c-2.65 0-4.55-.45-4.25-.95s-1.65-1.2-4.35-1.6c-3.1-.4-5.2-1.25-5.55-2.25-.95-2.4 1.35-8.1 3.5-8.75 2.2-.7 2.3-1.35 1-7-1.25-5.4 1.05-2.45 3.6 4.6l1.75 4.9 4.55-.15 4.55-.2-4.05-.35c-4.8-.45-9.4-8.85-9.5-17.3-.05-5.95-2.05-13.35-4.35-15.85-1-1.1-1.5-2.5-1.15-3.05 1-1.65-1.3-5.1-3.45-5.1-1.05 0-2.45.95-3.05 2.1m3.65 42.45c-.6 6.45-1.6 6.8-1.6.6 0-2.85.45-5.15 1-5.15.65 0 .85 1.85.6 4.55m-103.45-265c-.05 2.2-.85 5-1.7 6.2-1.2 1.7-1.3 2.7-.45 4.25 1.35 2.55 2.3 2.6 1.5.05-.35-1.1-.1-2.9.5-4.05s.95-3.95.75-6.3l-.4-4.2zM148.6 57.6c-1.05 2.7-.65 5.15.9 5.75.85.35 1.5.15 1.5-.4 0-.5-.5-.95-1.1-.95-.65 0-.8-1.1-.4-3 .7-3.2.15-4.1-.9-1.4m71.2 313.15c2.35.2 5.95.2 8 0 2-.25.1-.4-4.3-.4s-6.1.15-3.7.4"/>
</svg>
